<?xml version="1.0" standalone="no"?><!-- Generator: Gravit.io --><svg xmlns="http://www.w3.org/2000/svg" xmlns:xlink="http://www.w3.org/1999/xlink" style="isolation:isolate" viewBox="370 155.513 24 24" width="24" height="24"><path d=" M 382 155.513 C 375.377 155.523 370.01 160.889 370 167.513 C 370.01 174.136 375.377 179.503 382 179.513 C 388.623 179.503 393.99 174.136 394 167.513 C 393.99 160.889 388.623 155.523 382 155.513 L 382 155.513 Z  M 382 157.359 C 387.618 157.359 392.154 161.895 392.154 167.513 C 392.154 173.131 387.618 177.667 382 177.667 C 379.306 177.67 376.721 176.601 374.816 174.696 C 372.911 172.791 371.843 170.207 371.846 167.513 C 371.846 161.895 376.382 157.359 382 157.359 Z  M 381.077 162.897 L 381.077 166.59 L 377.385 166.59 L 377.385 168.436 L 381.077 168.436 L 381.077 172.128 L 382.923 172.128 L 382.923 168.436 L 386.615 168.436 L 386.615 166.59 L 382.923 166.59 L 382.923 162.897 L 381.077 162.897 Z " fill="rgb(48,255,200)"/></svg>