<?xml version="1.0" standalone="no"?><!-- Generator: Gravit.io --><svg xmlns="http://www.w3.org/2000/svg" xmlns:xlink="http://www.w3.org/1999/xlink" style="isolation:isolate" viewBox="1518.33 116.337 11.67 11.634" width="11.67" height="11.634"><path d=" M 1528.664 116.337 C 1526.807 116.337 1525.391 116.8 1524.588 117.735 L 1524.585 117.738 L 1522.78 119.898 L 1522.432 119.898 C 1521.162 119.898 1520.24 120.132 1519.631 120.371 C 1519.02 120.612 1518.689 120.889 1518.689 120.889 L 1518.33 121.203 L 1524.982 127.971 L 1525.293 127.672 C 1525.293 127.672 1525.617 127.356 1525.896 126.75 C 1526.174 126.142 1526.438 125.213 1526.438 123.905 L 1526.438 123.55 L 1528.599 121.749 L 1528.602 121.745 C 1529.537 120.946 1530 119.53 1530 117.672 L 1530 116.337 L 1528.664 116.337 Z  M 1528.664 117.227 L 1529.11 117.227 L 1529.11 117.672 C 1529.11 119.377 1528.664 120.522 1528.021 121.07 L 1523.346 124.966 L 1521.364 122.985 L 1525.267 118.31 C 1525.819 117.67 1526.964 117.228 1528.664 117.228 L 1528.664 117.227 Z  M 1527.329 118.118 C 1526.839 118.118 1526.438 118.518 1526.438 119.008 C 1526.438 119.498 1526.839 119.898 1527.329 119.898 C 1527.819 119.898 1528.219 119.498 1528.219 119.008 C 1528.219 118.518 1527.819 118.118 1527.329 118.118 Z  M 1522.021 120.807 L 1520.717 122.365 L 1519.708 121.335 C 1519.813 121.276 1519.77 121.272 1519.959 121.199 C 1520.401 121.026 1521.085 120.852 1522.021 120.806 L 1522.021 120.807 Z  M 1525.53 124.306 C 1525.482 125.265 1525.284 125.947 1525.085 126.378 C 1524.995 126.58 1524.988 126.542 1524.922 126.642 L 1523.93 125.638 L 1525.53 124.306 Z  M 1520.206 124.343 L 1518.425 127.905 L 1521.986 126.124 L 1520.206 124.343 Z " fill="rgb(51,50,50)"/></svg>