<svg width="20" height="20" viewBox="0 0 20 20" fill="none" xmlns="http://www.w3.org/2000/svg">
<path d="M13.1344 6.5C13.1344 7.39346 13.1344 8.44444 13.1284 9.1981C13.0893 9.73661 13.1284 12.7222 15.4657 12.3333C18.1926 11.5556 17.803 3 10.012 3C6.13937 3 3 6.13401 3 10C3 13.866 6.13937 17 10.012 17C11.9423 17 13.5325 16.1725 15 15M13.1284 10C13.1284 11.7182 11.7331 13.1111 10.012 13.1111C8.29081 13.1111 6.89554 11.7182 6.89554 10C6.89554 8.28178 8.29081 6.88889 10.012 6.88889C11.7331 6.88889 13.1284 8.28178 13.1284 10Z" stroke="#B7C7CC" stroke-width="2" stroke-linecap="round"/>
</svg>
