<svg width="20" height="20" viewBox="0 0 20 20" fill="none" xmlns="http://www.w3.org/2000/svg">
<path d="M3 6.73333C3 5.42654 3 4.77315 3.23615 4.27402C3.44388 3.83498 3.77534 3.47802 4.18302 3.25432C4.6465 3 5.25322 3 6.46667 3H13.5333C14.7468 3 15.3535 3 15.817 3.25432C16.2247 3.47802 16.5561 3.83498 16.7638 4.27402C17 4.77315 17 5.42654 17 6.73333V13.2667C17 14.5735 17 15.2269 16.7638 15.726C16.5561 16.165 16.2247 16.522 15.817 16.7457C15.3535 17 14.7468 17 13.5333 17H6.46667C5.25322 17 4.6465 17 4.18302 16.7457C3.77534 16.522 3.44388 16.165 3.23615 15.726C3 15.2269 3 14.5735 3 13.2667V6.73333Z" stroke="#B7C7CC" stroke-width="2" stroke-linecap="round" stroke-linejoin="round"/>
</svg>
