<svg width="20" height="20" viewBox="0 0 20 20" fill="none" xmlns="http://www.w3.org/2000/svg">
<path d="M11 16.9998H17M3.00003 16.9998H4.39548C4.80313 16.9998 5.00696 16.9998 5.19877 16.9537C5.36883 16.9129 5.53141 16.8456 5.68053 16.7542C5.84872 16.6511 5.99285 16.507 6.2811 16.2187L16 5.49996C16.6903 4.8096 16.6903 3.69032 16 2.99996C15.3096 2.3096 14.1903 2.3096 13.5 2.99996L3.78108 13.7187C3.49283 14.007 3.3487 14.1511 3.24563 14.3193C3.15425 14.4684 3.08691 14.631 3.04608 14.8011C3.00003 14.9929 3.00003 15.1967 3.00003 15.6043V16.9998Z" stroke="#B7C7CC" stroke-width="2" stroke-linecap="round" stroke-linejoin="round"/>
</svg>
