<svg width="20" height="20" viewBox="0 0 20 20" fill="none" xmlns="http://www.w3.org/2000/svg">
<path d="M8.6 11.5091C8.97466 11.8149 9.46427 12 10 12C11.1782 12 12.1332 11.1046 12.1332 10C12.1332 9.3977 11.8493 8.85759 11.4 8.49092M15.6 4L4.4 16M11 5.41044C10.6781 5.36041 10.3447 5.33333 10 5.33333C6.36992 5.33333 3.98789 8.33656 3.18763 9.52455C3.09079 9.66831 3.04237 9.74019 3.01527 9.85106C2.99491 9.93433 2.99491 10.0657 3.01527 10.1489C3.04237 10.2598 3.09079 10.3317 3.18763 10.4755C3.49457 10.9311 4.03421 11.6538 4.78771 12.3717M15.1866 7.60391C15.9535 8.32976 16.5019 9.06372 16.8124 9.52455C16.9092 9.66831 16.9576 9.74019 16.9847 9.85106C17.0051 9.93433 17.0051 10.0657 16.9847 10.1489C16.9576 10.2598 16.9092 10.3317 16.8124 10.4755C16.0121 11.6634 13.6301 14.6667 10 14.6667C9.60741 14.6667 9.22941 14.6315 8.86643 14.5674" stroke="#B7C7CC" stroke-width="1.6875" stroke-linecap="round" stroke-linejoin="round"/>
</svg>
