<svg width="20" height="20" viewBox="0 0 20 20" fill="none" xmlns="http://www.w3.org/2000/svg">
<path d="M3.18763 10.5094C3.09079 10.3554 3.04237 10.2784 3.01527 10.1596C2.99491 10.0704 2.99491 9.92964 3.01527 9.84042C3.04237 9.72163 3.09079 9.64462 3.18763 9.49059C3.98789 8.21774 6.36992 5 10 5C13.6301 5 16.0121 8.21774 16.8124 9.49059C16.9092 9.64462 16.9576 9.72163 16.9847 9.84042C17.0051 9.92964 17.0051 10.0704 16.9847 10.1596C16.9576 10.2784 16.9092 10.3554 16.8124 10.5094C16.0121 11.7823 13.6301 15 10 15C6.36992 15 3.98789 11.7823 3.18763 10.5094Z" stroke="#B7C7CC" stroke-width="1.44643" stroke-linecap="round" stroke-linejoin="round"/>
<path d="M10 12C11.1046 12 12 11.1046 12 10C12 8.89543 11.1046 8 10 8C8.89543 8 8 8.89543 8 10C8 11.1046 8.89543 12 10 12Z" stroke="#B7C7CC" stroke-width="1.44643" stroke-linecap="round" stroke-linejoin="round"/>
</svg>
