<svg width="20" height="20" viewBox="0 0 20 20" fill="none" xmlns="http://www.w3.org/2000/svg">
<path d="M10 7.42857L10 12.5714C10 13.7715 10 14.3716 10.2422 14.83C10.4553 15.2332 10.7952 15.561 11.2134 15.7664C11.6887 16 12.311 16 13.5556 16L14.4444 16C15.689 16 16.3113 16 16.7866 15.7664C17.2048 15.561 17.5447 15.2332 17.7578 14.83C18 14.3716 18 13.7715 18 12.5714L18 7.42857C18 6.22846 18 5.6284 17.7578 5.17002C17.5447 4.76682 17.2048 4.439 16.7866 4.23356C16.3113 4 15.689 4 14.4444 4L13.5556 4C12.311 4 11.6887 4 11.2134 4.23356C10.7952 4.439 10.4553 4.76682 10.2422 5.17002C10 5.6284 10 6.22846 10 7.42857Z" stroke="#B7C7CC" stroke-width="2" stroke-linecap="round" stroke-linejoin="round"/>
<path d="M7 5C6.65539 5.23016 6.37521 5.59742 6.19962 6.04914C6 6.56268 6 8.65549 6 10L6 11.6554C6 12.9999 6 13.4375 6.19962 13.9511C6.37521 14.4028 6.65539 14.7701 7 15.0002" stroke="#B7C7CC" stroke-width="2" stroke-linecap="round" stroke-linejoin="round"/>
<path d="M3 14C2.72549 14 2 13.7655 2 13.125V6.875C2 6.4124 2.72549 6 3 6" stroke="#B7C7CC" stroke-width="2" stroke-linejoin="round"/>
</svg>
