<svg width="20" height="20" viewBox="0 0 20 20" fill="none" xmlns="http://www.w3.org/2000/svg">
<path d="M11.75 2.21581V5.52024C11.75 5.96828 11.75 6.1923 11.8454 6.36343C11.9293 6.51396 12.0631 6.63635 12.2278 6.71305C12.4149 6.80024 12.66 6.80024 13.15 6.80024H16.7642M11 14H7.00001M13 11.0002H7.00001M17 8.00009V14.16C17 15.5041 17 16.1762 16.7139 16.6896C16.4622 17.1412 16.0607 17.5083 15.5667 17.7384C15.0052 18 14.2701 18 12.8 18H7.20001C5.72987 18 4.9948 18 4.43328 17.7384C3.93936 17.5083 3.53778 17.1412 3.28611 16.6896C3.00001 16.1762 3.00001 15.5041 3.00001 14.16L3 5.84018C3 4.49606 3 3.82399 3.28611 3.31061C3.53778 2.85902 3.93935 2.49186 4.43327 2.26177C4.99479 2.00018 5.72986 2.00018 7.2 2.00018H10.0103C10.6524 2.00018 10.9734 2.00018 11.2755 2.0665C11.5433 2.12529 11.7994 2.22226 12.0342 2.35385C12.2992 2.50227 12.5262 2.70981 12.9802 3.12489L15.7698 5.67547C16.2238 6.09056 16.4508 6.2981 16.6132 6.5403C16.7571 6.75503 16.8632 6.98914 16.9275 7.23403C17 7.51024 17 7.41308 17 8.00009Z" stroke="#B7C7CC" stroke-width="2" stroke-linecap="round" stroke-linejoin="round"/>
</svg>
