<svg width="20" height="20" viewBox="0 0 20 20" fill="none" xmlns="http://www.w3.org/2000/svg">
<path d="M3.82419 5.10251C3.28193 4.43608 3.01079 4.10286 3.00057 3.81967C2.99168 3.57366 3.08782 3.33721 3.26047 3.18045C3.45922 3 3.86585 3 4.67909 3H15.3209C16.1342 3 16.5408 3 16.7395 3.18045C16.9122 3.33721 17.0083 3.57366 16.9994 3.81967C16.9892 4.10286 16.7181 4.43608 16.1758 5.10251L12.0846 10.1305C11.9766 10.2633 11.9225 10.3297 11.884 10.4053C11.8498 10.4724 11.8247 10.5446 11.8095 10.6196C11.7924 10.7042 11.7924 10.7933 11.7924 10.9716V15.1871C11.7924 15.3413 11.7924 15.4184 11.7698 15.485C11.7498 15.5439 11.7173 15.5967 11.675 15.639C11.6271 15.6868 11.562 15.7154 11.4319 15.7727L8.99418 16.8449C8.73067 16.9608 8.59891 17.0188 8.49314 16.9946C8.40065 16.9735 8.31948 16.913 8.26728 16.8264C8.2076 16.7274 8.2076 16.5714 8.2076 16.2593V10.9716C8.2076 10.7933 8.20759 10.7042 8.19048 10.6196C8.17529 10.5446 8.15021 10.4724 8.11603 10.4053C8.07749 10.3297 8.02345 10.2633 7.91535 10.1305L3.82419 5.10251Z" stroke="#B7C7CC" stroke-width="2" stroke-linecap="round" stroke-linejoin="round"/>
</svg>
