<svg width="20" height="20" viewBox="0 0 20 20" fill="none" xmlns="http://www.w3.org/2000/svg">
<path d="M3 2L3 11.5C3 12.9001 3 13.6002 3.27248 14.135C3.51217 14.6054 3.89462 14.9878 4.36502 15.2275C4.8998 15.5 5.59987 15.5 7 15.5H12M12 15.5C12 16.8807 13.1193 18 14.5 18C15.8807 18 17 16.8807 17 15.5C17 14.1193 15.8807 13 14.5 13C13.1193 13 12 14.1193 12 15.5ZM3 6.5L12 6.5M12 6.5C12 7.88071 13.1193 9 14.5 9C15.8807 9 17 7.88071 17 6.5C17 5.11929 15.8807 4 14.5 4C13.1193 4 12 5.11929 12 6.5Z" stroke="#B7C7CC" stroke-width="2" stroke-linecap="round" stroke-linejoin="round"/>
</svg>
