<svg width="21" height="20" viewBox="0 0 21 20" fill="none" xmlns="http://www.w3.org/2000/svg">
<path d="M10.5 0C4.69737 0 0 4.57734 0 10.2317C0 14.7552 3.03947 18.5786 7.18421 19.9249C7.73684 20.0326 7.90263 19.7095 7.90263 19.4402V17.717C4.97368 18.3094 4.36579 16.3169 4.36579 16.3169C3.86842 15.186 3.20526 14.8629 3.20526 14.8629C2.26579 14.2167 3.26053 14.2705 3.26053 14.2705C4.31053 14.3244 4.86316 15.3476 4.86316 15.3476C5.80263 16.9092 7.35 16.4784 7.90263 16.2092C8.01316 15.563 8.28947 15.0783 8.56579 14.809C6.24474 14.5398 3.75789 13.6782 3.75789 9.74704C3.75789 8.61617 4.14474 7.75455 4.86316 7.00064C4.75263 6.73138 4.42105 5.70821 4.97368 4.30808C4.97368 4.30808 5.85789 4.03883 7.84737 5.38511C8.67632 5.1697 9.56053 5.00815 10.5 5.00815C11.3842 5.00815 12.3237 5.11585 13.0974 5.38511C15.0868 4.09268 15.9711 4.30808 15.9711 4.30808C16.5237 5.70821 16.1921 6.78523 16.0816 7.00064C16.7447 7.7007 17.1868 8.61617 17.1868 9.74704C17.1868 13.6782 14.7 14.5398 12.3789 14.809C12.7658 15.1321 13.0974 15.7245 13.0974 16.6938V19.4941C13.0974 19.7633 13.3184 20.0864 13.8158 19.9787C17.9605 18.5786 21 14.7552 21 10.2317C21 4.57734 16.3026 0 10.5 0Z" fill="#B7C7CC"/>
</svg>
