<svg width="20" height="20" viewBox="0 0 20 20" fill="none" xmlns="http://www.w3.org/2000/svg">
<path d="M13.75 8V6.88889C13.75 4.74112 12.0711 3 10 3C7.92893 3 6.25 4.74112 6.25 6.88889V8M7.6 17H12.4C13.6601 17 15.2902 17 15.7715 16.7457C16.1948 16.522 16.539 16.165 16.7548 15.726C17 15.2268 17 14.4762 17 13.1694V11.7333C17 10.4265 17 9.77315 16.7548 9.27402C16.539 8.83498 16.1948 8.47802 15.7715 8.25432C15.2902 8 13.6601 8 12.4 8H7.6C6.33988 8 4.70982 8 4.22852 8.25432C3.80516 8.47802 3.46095 8.83498 3.24524 9.27402C3 9.77315 3 10.4265 3 11.7333V13.1694C3 14.4762 3 15.2268 3.24524 15.726C3.46095 16.165 3.80516 16.522 4.22852 16.7457C4.70982 17 6.33988 17 7.6 17Z" stroke="#B7C7CC" stroke-width="2" stroke-linecap="round" stroke-linejoin="round"/>
<path d="M10 12V13" stroke="#B7C7CC" stroke-width="2" stroke-linecap="round" stroke-linejoin="round"/>
</svg>
