<svg width="20" height="20" viewBox="0 0 20 20" fill="none" xmlns="http://www.w3.org/2000/svg">
<path d="M10 11C10.5178 11 11 10.5523 11 10C11 9.44772 10.5178 9 10 9C9.48223 9 9 9.44772 9 10C9 10.5523 9.48223 11 10 11Z" fill="#B7C7CC"/>
<path d="M16 11C16.5178 11 17 10.5523 17 10C17 9.44772 16.5178 9 16 9C15.4822 9 15 9.44772 15 10C15 10.5523 15.4822 11 16 11Z" fill="#B7C7CC"/>
<path d="M4 11C4.51777 11 5 10.5523 5 10C5 9.44772 4.51777 9 4 9C3.48223 9 3 9.44772 3 10C3 10.5523 3.48223 11 4 11Z" fill="#B7C7CC"/>
<path d="M10 11C10.5178 11 11 10.5523 11 10C11 9.44772 10.5178 9 10 9C9.48223 9 9 9.44772 9 10C9 10.5523 9.48223 11 10 11Z" stroke="#B7C7CC" stroke-width="2" stroke-linecap="round" stroke-linejoin="round"/>
<path d="M16 11C16.5178 11 17 10.5523 17 10C17 9.44772 16.5178 9 16 9C15.4822 9 15 9.44772 15 10C15 10.5523 15.4822 11 16 11Z" stroke="#B7C7CC" stroke-width="2" stroke-linecap="round" stroke-linejoin="round"/>
<path d="M4 11C4.51777 11 5 10.5523 5 10C5 9.44772 4.51777 9 4 9C3.48223 9 3 9.44772 3 10C3 10.5523 3.48223 11 4 11Z" stroke="#B7C7CC" stroke-width="2" stroke-linecap="round" stroke-linejoin="round"/>
</svg>
