<svg width="20" height="20" viewBox="0 0 20 20" fill="none" xmlns="http://www.w3.org/2000/svg">
<path d="M13.1111 5V4.36C13.1111 3.46392 13.1111 3.21587 12.9416 2.87362C12.7924 2.57256 12.5545 2.32779 12.2618 2.17439C11.929 2 11.4934 2 10.6222 2H9.37778C8.50658 2 8.07099 2 7.73824 2.17439C7.44554 2.32779 7.20757 2.57256 7.05843 2.87362C6.88889 3.21587 6.88889 3.46392 6.88889 4.36V5M8.44444 9V14M11.5556 9V14M3 5H17M15.4444 5V14.16C15.4444 15.5041 15.4444 16.1762 15.1901 16.6896C14.9664 17.1412 14.6095 17.5083 14.1704 17.7384C13.6713 18 13.0179 18 11.7111 18H8.28889C6.9821 18 6.32871 18 5.82958 17.7384C5.39053 17.5083 5.03358 17.1412 4.80987 16.6896C4.55556 16.1762 4.55556 15.5041 4.55556 14.16V5" stroke="#B7C7CC" stroke-width="2" stroke-linecap="round" stroke-linejoin="round"/>
</svg>
