<svg width="40" height="40" viewBox="0 0 40 40" fill="none" xmlns="http://www.w3.org/2000/svg">
<path d="M20.0006 1.33323C9.70793 1.33323 1.33422 9.70678 1.33422 19.9997C1.33422 30.2926 9.70793 38.6662 20.0006 38.6662C30.2921 38.6662 38.6658 30.2926 38.6658 19.9997C38.6658 9.70678 30.2921 1.33323 20.0006 1.33323ZM20.0006 40C8.97304 40 0 31.0282 0 19.9997C0 8.97122 8.97304 -3.24836e-06 20.0006 -3.24836e-06C31.0282 -3.24836e-06 40 8.97122 40 19.9997C40 31.0282 31.0282 40 20.0006 40Z" fill="white"/>
<path d="M18.1544 27.8345C17.9769 27.8345 17.8079 27.764 17.6827 27.6389L10.8675 20.8239C10.6073 20.564 10.6073 20.1418 10.8675 19.8812C11.1282 19.6207 11.5507 19.6207 11.8109 19.8812L18.1544 26.2249L31.3136 13.0651C31.5744 12.8045 31.9969 12.8045 32.257 13.0651C32.5178 13.3256 32.5178 13.7472 32.257 14.0077L18.626 27.6389C18.5008 27.764 18.3318 27.8345 18.1544 27.8345Z" fill="white"/>
</svg>
