<svg width="40" height="40" viewBox="0 0 40 40" fill="none" xmlns="http://www.w3.org/2000/svg">
<path d="M20 1.33323C9.70969 1.33323 1.33792 9.70678 1.33792 19.9997C1.33792 30.2926 9.70969 38.6662 20 38.6662C30.2903 38.6662 38.6621 30.2926 38.6621 19.9997C38.6621 9.70678 30.2903 1.33323 20 1.33323ZM20 40C8.97128 40 0 31.0282 0 19.9997C0 8.97122 8.97128 -3.24836e-06 20 -3.24836e-06C31.0281 -3.24836e-06 40 8.97122 40 19.9997C40 31.0282 31.0281 40 20 40Z" fill="white"/>
<path d="M20 31.8486C19.6302 31.8486 19.3311 31.5504 19.3311 31.1817V8.81622C19.3311 8.44753 19.6302 8.1493 20 8.1493C20.3698 8.1493 20.669 8.44753 20.669 8.81622V31.1817C20.669 31.5504 20.3698 31.8486 20 31.8486Z" fill="white"/>
<path d="M31.1812 20.6665H8.8185C8.44929 20.6665 8.15015 20.3683 8.15015 19.9996C8.15015 19.6315 8.44929 19.3333 8.8185 19.3333H31.1812C31.551 19.3333 31.8501 19.6315 31.8501 19.9996C31.8501 20.3683 31.551 20.6665 31.1812 20.6665Z" fill="white"/>
</svg>
