<svg width="21" height="25" viewBox="0 0 21 25" fill="none" xmlns="http://www.w3.org/2000/svg">
<path d="M10.7442 25C10.5774 25 10.4107 24.9341 10.2837 24.8018L0.190952 14.3327C-0.0636508 14.0692 -0.0636508 13.6413 0.190952 13.3772C0.445555 13.1138 0.857431 13.1138 1.11203 13.3772L10.7442 23.3686L19.888 13.8839C20.1426 13.6204 20.5544 13.6204 20.809 13.8839C21.0637 14.148 21.0637 14.5758 20.809 14.8399L11.2048 24.8018C11.0778 24.9341 10.911 25 10.7442 25Z" fill="white"/>
<path d="M10.7442 25C10.3839 25 10.0925 24.6977 10.0925 24.3241V0.675326C10.0925 0.30165 10.3839 -7.41402e-08 10.7442 -7.41402e-08C11.1044 -7.41402e-08 11.3958 0.30165 11.3958 0.675326V24.3241C11.3958 24.6977 11.1044 25 10.7442 25Z" fill="white"/>
</svg>
