<svg width="25" height="21" viewBox="0 0 25 21" fill="none" xmlns="http://www.w3.org/2000/svg">
<path d="M10.6379 21C10.4649 21 10.292 20.9365 10.1602 20.8089L0.198067 11.2045C-0.0660224 10.9505 -0.0660224 10.538 0.198067 10.2834L10.6669 0.190508C10.9309 -0.0635049 11.3582 -0.0635049 11.6223 0.190508C11.8863 0.445115 11.8863 0.85759 11.6223 1.1122L1.63117 10.7439L11.1156 19.8878C11.3797 20.1424 11.3797 20.5549 11.1156 20.8089C10.9839 20.9365 10.8109 21 10.6379 21Z" fill="white"/>
<path d="M24.3241 11.3955H0.676044C0.302378 11.3955 0.00012207 11.1041 0.00012207 10.7439C0.00012207 10.3842 0.302378 10.0928 0.676044 10.0928H24.3241C24.6978 10.0928 25 10.3842 25 10.7439C25 11.1041 24.6978 11.3955 24.3241 11.3955Z" fill="white"/>
</svg>
