<svg width="25" height="21" viewBox="0 0 25 21" fill="none" xmlns="http://www.w3.org/2000/svg">
<path d="M13.8551 21C13.6821 21 13.5091 20.9365 13.3774 20.8089C13.1133 20.5549 13.1133 20.1424 13.3774 19.8878L23.3685 10.2555L13.884 1.1122C13.6199 0.85759 13.6199 0.445115 13.884 0.190508C14.1481 -0.0635049 14.5753 -0.0635049 14.8394 0.190508L24.8016 9.79494C25.0657 10.0495 25.0657 10.462 24.8016 10.716L14.3328 20.8089C14.2011 20.9365 14.0281 21 13.8551 21Z" fill="white"/>
<path d="M24.3241 10.9072H0.675925C0.302258 10.9072 0 10.6158 0 10.2556C0 9.89592 0.302258 9.60452 0.675925 9.60452H24.3241C24.6977 9.60452 25 9.89592 25 10.2556C25 10.6158 24.6977 10.9072 24.3241 10.9072Z" fill="white"/>
</svg>
