<svg width="21" height="25" viewBox="0 0 21 25" fill="none" xmlns="http://www.w3.org/2000/svg">
<path d="M20.3485 11.8203C20.1817 11.8203 20.015 11.7544 19.888 11.6221L10.2558 1.63079L1.11203 11.1154C0.857432 11.3795 0.445555 11.3795 0.190952 11.1154C-0.0636508 10.852 -0.0636508 10.4241 0.190952 10.16L9.79524 0.197655C10.0498 -0.0658251 10.4617 -0.0658251 10.7163 0.197655L20.809 10.6667C21.0637 10.9308 21.0637 11.3586 20.809 11.6221C20.682 11.7544 20.5153 11.8203 20.3485 11.8203Z" fill="white"/>
<path d="M10.2556 25C9.8954 25 9.604 24.6977 9.604 24.3241V0.675524C9.604 0.301851 9.8954 0.000203252 10.2556 0.000203252C10.6159 0.000203252 10.9073 0.301851 10.9073 0.675524V24.3241C10.9073 24.6977 10.6159 25 10.2556 25Z" fill="white"/>
</svg>
