<svg width="40" height="39" viewBox="0 0 40 39" fill="none" xmlns="http://www.w3.org/2000/svg">
<path d="M34.7081 30.8232C34.3394 30.8232 34.0411 30.5247 34.0411 30.1557V15.2868C34.0411 7.59301 27.7424 1.33465 20 1.33465C12.2569 1.33465 5.95762 7.59301 5.95762 15.2868V30.1557C5.95762 30.5247 5.65939 30.8232 5.2907 30.8232C4.92262 30.8232 4.62439 30.5247 4.62439 30.1557V15.2868C4.62439 6.85798 11.522 0.000172307 20 0.000172307C28.4774 0.000172307 35.375 6.85798 35.375 15.2868V30.1557C35.375 30.5247 35.0767 30.8232 34.7081 30.8232Z" fill="white"/>
<path d="M39.3331 30.8232H0.666315C0.298233 30.8232 0 30.5247 0 30.1557C0 29.7873 0.298233 29.4888 0.666315 29.4888H39.3331C39.7018 29.4888 40 29.7873 40 30.1557C40 30.5247 39.7018 30.8232 39.3331 30.8232Z" fill="white"/>
<path d="M19.9999 39C17.3298 39 15.1577 36.8393 15.1577 34.1819C15.1577 33.8129 15.4553 33.5144 15.824 33.5144C16.1927 33.5144 16.4909 33.8129 16.4909 34.1819C16.4909 36.1031 18.0647 37.6655 19.9999 37.6655C21.935 37.6655 23.5082 36.1031 23.5082 34.1819C23.5082 33.8129 23.8064 33.5144 24.1751 33.5144C24.5432 33.5144 24.8414 33.8129 24.8414 34.1819C24.8414 36.8393 22.67 39 19.9999 39Z" fill="white"/>
</svg>
