<svg width="40" height="35" viewBox="0 0 40 35" fill="none" xmlns="http://www.w3.org/2000/svg">
<path d="M10.7174 33.6539H29.2826L38.5624 17.5L29.2826 1.34606H10.7174L1.43756 17.5L10.7174 33.6539ZM29.6665 35H10.3335C10.0948 35 9.87617 34.8724 9.75651 34.6646L0.0897433 17.8379C-0.0299144 17.6288 -0.0299144 17.3712 0.0897433 17.1621L9.75651 0.335443C9.87617 0.127555 10.0948 4.64376e-07 10.3335 4.64376e-07H29.6665C29.9052 4.64376e-07 30.1238 0.127555 30.2435 0.335443L39.9103 17.1621C40.0299 17.3712 40.0299 17.6288 39.9103 17.8379L30.2435 34.6646C30.1238 34.8724 29.9052 35 29.6665 35Z" fill="white"/>
<path d="M20 10.2131C16.0002 10.2131 12.7458 13.4817 12.7458 17.5002C12.7458 21.5182 16.0002 24.7868 20 24.7868C23.9997 24.7868 27.2541 21.5182 27.2541 17.5002C27.2541 13.4817 23.9997 10.2131 20 10.2131ZM20 26.1328C15.2653 26.1328 11.4125 22.2602 11.4125 17.5002C11.4125 12.7397 15.2653 8.86707 20 8.86707C24.7346 8.86707 28.5874 12.7397 28.5874 17.5002C28.5874 22.2602 24.7346 26.1328 20 26.1328Z" fill="white"/>
</svg>
