<svg width="40" height="40" viewBox="0 0 40 40" fill="none" xmlns="http://www.w3.org/2000/svg">
<path d="M32.8858 19.9937C31.0004 19.9937 30.0407 19.0307 29.1934 18.1817C28.4335 17.419 27.7763 16.7597 26.4382 16.7597C25.102 16.7597 24.4454 17.4184 23.6861 18.1811C22.8394 19.0307 21.8803 19.9937 19.9956 19.9937C18.1102 19.9937 17.1505 19.0307 16.3044 18.1811C15.5439 17.4184 14.8879 16.7597 13.5511 16.7597C12.2142 16.7597 11.5582 17.4184 10.7983 18.1811C9.95222 19.0307 8.99314 19.9937 7.10838 19.9937C5.22363 19.9937 4.26454 19.0307 3.41904 18.1811C2.65919 17.4184 2.00259 16.7597 0.666923 16.7597C0.298232 16.7597 0 16.4572 0 16.0839C0 15.7099 0.298232 15.4074 0.666923 15.4074C2.55168 15.4074 3.51076 16.3704 4.35626 17.22C5.11611 17.9827 5.77211 18.6413 7.10838 18.6413C8.44466 18.6413 9.10125 17.9827 9.86111 17.22C10.7072 16.3704 11.6663 15.4074 13.5511 15.4074C15.4358 15.4074 16.3955 16.3704 17.2416 17.2194C18.0021 17.9821 18.6587 18.6413 19.9956 18.6413C21.3324 18.6413 21.9884 17.9827 22.7483 17.22C23.5944 16.3704 24.5535 15.4074 26.4382 15.4074C28.3248 15.4074 29.2839 16.3704 30.1312 17.22C30.8917 17.9827 31.5477 18.6413 32.8858 18.6413C34.2239 18.6413 34.8805 17.9821 35.6409 17.2194C36.4882 16.3704 37.4473 15.4074 39.3333 15.4074C39.7014 15.4074 39.9996 15.7099 39.9996 16.0839C39.9996 16.4572 39.7014 16.7597 39.3333 16.7597C37.9952 16.7597 37.3386 17.4184 36.5787 18.1811C35.7314 19.0307 34.7717 19.9937 32.8858 19.9937Z" fill="white"/>
<path d="M4.00033 25.4033H0.666923C0.298233 25.4033 0 25.1008 0 24.7268C0 24.3535 0.298233 24.051 0.666923 24.051H4.00033C4.36902 24.051 4.66725 24.3535 4.66725 24.7268C4.66725 25.1008 4.36902 25.4033 4.00033 25.4033Z" fill="white"/>
<path d="M16.7999 25.4033H10.4003C10.0316 25.4033 9.7334 25.1008 9.7334 24.7268C9.7334 24.3535 10.0316 24.051 10.4003 24.051H16.7999C17.1686 24.051 17.4668 24.3535 17.4668 24.7268C17.4668 25.1008 17.1686 25.4033 16.7999 25.4033ZM29.6002 25.4033H23.2C22.8319 25.4033 22.5337 25.1008 22.5337 24.7268C22.5337 24.3535 22.8319 24.051 23.2 24.051H29.6002C29.9683 24.051 30.2665 24.3535 30.2665 24.7268C30.2665 25.1008 29.9683 25.4033 29.6002 25.4033Z" fill="white"/>
<path d="M39.3331 25.4033H35.9997C35.631 25.4033 35.3328 25.1008 35.3328 24.7268C35.3328 24.3535 35.631 24.051 35.9997 24.051H39.3331C39.7018 24.051 40 24.3535 40 24.7268C40 25.1008 39.7018 25.4033 39.3331 25.4033Z" fill="white"/>
<path d="M39.3331 30.813H0.66668C0.298597 30.813 0.000366211 30.5105 0.000366211 30.1365C0.000366211 29.7632 0.298597 29.4607 0.66668 29.4607H39.3331C39.7017 29.4607 40 29.7632 40 30.1365C40 30.5105 39.7017 30.813 39.3331 30.813Z" fill="white"/>
<path d="M1.43917 36.2227C1.87711 37.6089 3.63431 38.6477 5.72862 38.6477H34.2715C36.3658 38.6477 38.123 37.6089 38.5609 36.2227H1.43917ZM34.2715 40H5.72862C2.57015 40 0.000244141 38.0026 0.000244141 35.5462C0.000244141 35.1729 0.298477 34.8704 0.667168 34.8704H39.3329C39.7016 34.8704 39.9999 35.1729 39.9999 35.5462C39.9999 38.0026 37.43 40 34.2715 40Z" fill="white"/>
<path d="M1.38256 9.99727H38.6179C37.9218 5.17199 29.838 1.35217 20.0005 1.35217C10.1631 1.35217 2.07864 5.17199 1.38256 9.99727ZM39.3334 11.3496H0.667046C0.298355 11.3496 0.00012207 11.0471 0.00012207 10.6737C0.00012207 4.68835 8.78553 -0.000162479 20.0005 -0.000162479C31.2155 -0.000162479 39.9997 4.68835 39.9997 10.6737C39.9997 11.0471 39.7015 11.3496 39.3334 11.3496" fill="white"/>
<path d="M10.0635 8.17139C9.24714 8.17139 8.58325 7.50477 8.58325 6.68597C8.58325 6.31262 8.88148 6.01011 9.24957 6.01011C9.61826 6.01011 9.91649 6.31262 9.91649 6.68597C9.91649 6.8326 10.2105 6.8326 10.2105 6.68597C10.2105 6.31262 10.5087 6.01011 10.8774 6.01011C11.2455 6.01011 11.5437 6.31262 11.5437 6.68597C11.5437 7.50477 10.8798 8.17139 10.0635 8.17139Z" fill="white"/>
<path d="M20.0004 6.35156C19.184 6.35156 18.5201 5.68494 18.5201 4.86615C18.5201 4.49279 18.8178 4.19029 19.1865 4.19029C19.5551 4.19029 19.8534 4.49279 19.8534 4.86615C19.8534 5.01278 20.1474 5.01278 20.1474 4.86615C20.1474 4.49279 20.4456 4.19029 20.8143 4.19029C21.1824 4.19029 21.4806 4.49279 21.4806 4.86615C21.4806 5.68494 20.8167 6.35156 20.0004 6.35156Z" fill="white"/>
<path d="M29.9919 8.17139C29.1756 8.17139 28.5117 7.50477 28.5117 6.68597C28.5117 6.31262 28.8093 6.01011 29.178 6.01011C29.5467 6.01011 29.845 6.31262 29.845 6.68597C29.845 6.8326 30.1389 6.8326 30.1389 6.68597C30.1389 6.31262 30.4372 6.01011 30.8059 6.01011C31.1739 6.01011 31.4722 6.31262 31.4722 6.68597C31.4722 7.50477 30.8083 8.17139 29.9919 8.17139Z" fill="white"/>
</svg>
