<svg width="39" height="40" viewBox="0 0 39 40" fill="none" xmlns="http://www.w3.org/2000/svg">
<path d="M1.30596 38.6668H37.6937V1.33324H1.30596V38.6668ZM38.3469 40H0.652731C0.292214 40 0.00012207 39.7018 0.00012207 39.3331V0.666341C0.00012207 0.29826 0.292214 1.05822e-06 0.652731 1.05822e-06H38.3469C38.7074 1.05822e-06 38.9995 0.29826 38.9995 0.666341V39.3331C38.9995 39.7018 38.7074 40 38.3469 40Z" fill="white"/>
<path d="M38.3468 10.061H0.652618C0.292101 10.061 0 9.7628 0 9.39412C0 9.02603 0.292101 8.7278 0.652618 8.7278H38.3468C38.7079 8.7278 39 9.02603 39 9.39412C39 9.7628 38.7079 10.061 38.3468 10.061Z" fill="white"/>
<path d="M19.5002 32.1372H12.8628C12.5017 32.1372 12.2096 31.839 12.2096 31.4703C12.2096 31.1022 12.5017 30.804 12.8628 30.804H18.847V18.0311H12.8628C12.5017 18.0311 12.2096 17.7328 12.2096 17.3648C12.2096 16.9961 12.5017 16.6978 12.8628 16.6978H19.5002C19.8613 16.6978 20.1534 16.9961 20.1534 17.3648V31.4703C20.1534 31.839 19.8613 32.1372 19.5002 32.1372Z" fill="white"/>
<path d="M26.1369 32.1372H19.5C19.1389 32.1372 18.8474 31.839 18.8474 31.4703C18.8474 31.1022 19.1389 30.804 19.5 30.804H26.1369C26.498 30.804 26.7901 31.1022 26.7901 31.4703C26.7901 31.839 26.498 32.1372 26.1369 32.1372Z" fill="white"/>
</svg>
