<svg width="40" height="34" viewBox="0 0 40 34" fill="none" xmlns="http://www.w3.org/2000/svg">
<path d="M34.8049 22.6504H15.1231C14.8328 22.6504 14.5753 22.4629 14.4878 22.1876L7.8422 1.32763H0.666323C0.298236 1.32763 0 1.03061 0 0.66341C0 0.296819 0.298236 -0.000204091 0.666323 -0.000204091H8.32994C8.62028 -0.000204091 8.87721 0.187325 8.96529 0.462571L15.6109 21.3226H34.3062L38.442 7.34613H20C19.6313 7.34613 19.3331 7.04911 19.3331 6.68191C19.3331 6.31532 19.6313 6.0183 20 6.0183H39.3337C39.5438 6.0183 39.7419 6.1169 39.8676 6.28447C39.9933 6.45204 40.0322 6.66921 39.9727 6.86944L35.4445 22.1737C35.3606 22.4562 35.1007 22.6504 34.8049 22.6504Z" fill="white"/>
<path d="M17.4746 26.6059C15.7775 26.6059 14.3962 27.967 14.3962 29.639C14.3962 31.3111 15.7775 32.6722 17.4746 32.6722C19.1717 32.6722 20.5529 31.3111 20.5529 29.639C20.5529 27.967 19.1717 26.6059 17.4746 26.6059ZM17.4746 34C15.0425 34 13.063 32.0442 13.063 29.639C13.063 27.2344 15.0425 25.278 17.4746 25.278C19.9066 25.278 21.8861 27.2344 21.8861 29.639C21.8861 32.0442 19.9066 34 17.4746 34Z" fill="white"/>
<path d="M33.2053 26.6059C31.5082 26.6059 30.127 27.967 30.127 29.639C30.127 31.3111 31.5082 32.6722 33.2053 32.6722C34.9024 32.6722 36.2836 31.3111 36.2836 29.639C36.2836 27.967 34.9024 26.6059 33.2053 26.6059ZM33.2053 34C30.7732 34 28.7937 32.0442 28.7937 29.639C28.7937 27.2344 30.7732 25.278 33.2053 25.278C35.6373 25.278 37.6169 27.2344 37.6169 29.639C37.6169 32.0442 35.6373 34 33.2053 34Z" fill="white"/>
</svg>
