<svg width="38" height="30" viewBox="0 0 38 30" fill="none" xmlns="http://www.w3.org/2000/svg">
<path d="M37.3267 1.33936H0.673326C0.301096 1.33936 0 1.03972 0 0.669294C0 0.299478 0.301096 -0.000158016 0.673326 -0.000158016H37.3267C37.6989 -0.000158016 38 0.299478 38 0.669294C38 1.03972 37.6989 1.33936 37.3267 1.33936Z" fill="white"/>
<path d="M37.3267 20.4458H0.673326C0.301096 20.4458 0 20.1462 0 19.7757C0 19.4059 0.301096 19.1063 0.673326 19.1063H37.3267C37.6989 19.1063 38 19.4059 38 19.7757C38 20.1462 37.6989 20.4458 37.3267 20.4458Z" fill="white"/>
<path d="M31.4833 10.8926H6.51689C6.14466 10.8926 5.84357 10.5929 5.84357 10.2225C5.84357 9.8527 6.14466 9.55306 6.51689 9.55306H31.4833C31.8555 9.55306 32.1566 9.8527 32.1566 10.2225C32.1566 10.5929 31.8555 10.8926 31.4833 10.8926Z" fill="white"/>
<path d="M31.4833 30H6.51689C6.14466 30 5.84357 29.7004 5.84357 29.3299C5.84357 28.9601 6.14466 28.6605 6.51689 28.6605H31.4833C31.8555 28.6605 32.1566 28.9601 32.1566 29.3299C32.1566 29.7004 31.8555 30 31.4833 30Z" fill="white"/>
</svg>
