<svg width="40" height="32" viewBox="0 0 40 32" fill="none" xmlns="http://www.w3.org/2000/svg">
<path d="M30.0737 30.6427H36.7819C40.7987 21.1819 37.1146 11.5561 36.652 10.422L28.7939 2.46691C27.7617 1.42252 26.2008 1.07871 24.8177 1.5938L16.1424 4.7678C15.6379 6.03109 14.406 6.88503 13.0321 6.88503C12.4887 6.88503 11.9593 6.75456 11.4809 6.50413L1.33266 10.3435V17.3086C2.85656 17.7421 3.94393 19.134 3.94393 20.759C3.94393 22.3846 2.85656 23.7765 1.33266 24.21V30.6427H21.6758C22.1597 28.753 23.8694 27.3933 25.8748 27.3933C27.8801 27.3933 29.5898 28.753 30.0737 30.6427ZM37.2142 32H29.5218C29.183 32 28.8977 31.7409 28.8594 31.3977C28.6919 29.8883 27.409 28.7506 25.8748 28.7506C24.3405 28.7506 23.0571 29.8883 22.8901 31.3977C22.8519 31.7409 22.5665 32 22.2277 32H0.666631C0.298102 32 0 31.6964 0 31.3217V23.6516C0 23.306 0.25621 23.0147 0.593776 22.977C1.74368 22.8484 2.61128 21.8955 2.61128 20.759C2.61128 19.6231 1.74368 18.6702 0.593776 18.5416C0.25621 18.5039 0 18.2126 0 17.867V9.87167C0 9.58785 0.173033 9.33433 0.4341 9.23539L11.3103 5.12088C11.5106 5.04668 11.7292 5.07203 11.9065 5.18828C12.241 5.41027 12.6308 5.52775 13.0321 5.52775C13.9349 5.52775 14.7339 4.92115 14.9761 4.05299C15.0344 3.84336 15.1892 3.67393 15.392 3.59973L24.363 0.316906C26.2263 -0.375648 28.3343 0.0874956 29.7331 1.50476L37.6841 9.55322C37.7424 9.61135 37.7891 9.67998 37.8225 9.75604C38.0205 10.205 42.6225 20.8845 37.8207 31.603C37.712 31.8448 37.4752 32 37.2142 32" fill="white"/>
<path d="M37.0454 10.5503H0.666635C0.298105 10.5503 0.000610352 10.2467 0.000610352 9.87134C0.000610352 9.49662 0.298105 9.19301 0.666635 9.19301H37.0454C37.4139 9.19301 37.712 9.49662 37.712 9.87134C37.712 10.2467 37.4139 10.5503 37.0454 10.5503Z" fill="white"/>
<path d="M19.7495 17.2347C19.1326 17.2347 18.6311 17.7276 18.6311 18.3342C18.6311 18.9408 19.1326 19.4336 19.7495 19.4336C20.3663 19.4336 20.869 18.9408 20.869 18.3342C20.869 17.7276 20.3663 17.2347 19.7495 17.2347ZM19.7495 20.7915C18.398 20.7915 17.2979 19.689 17.2979 18.3342C17.2979 16.9794 18.398 15.8775 19.7495 15.8775C21.1015 15.8775 22.2017 16.9794 22.2017 18.3342C22.2017 19.689 21.1015 20.7915 19.7495 20.7915Z" fill="white"/>
<path d="M32.2473 18.3016C30.9085 18.3016 29.8194 19.38 29.8194 20.7051C29.8194 22.0296 30.9085 23.108 32.2473 23.108C33.5866 23.108 34.6758 22.0296 34.6758 20.7051C34.6758 19.38 33.5866 18.3016 32.2473 18.3016ZM32.2473 24.4653C30.1733 24.4653 28.4867 22.7785 28.4867 20.7051C28.4867 18.6312 30.1733 16.9443 32.2473 16.9443C34.3212 16.9443 36.0085 18.6312 36.0085 20.7051C36.0085 22.7785 34.3212 24.4653 32.2473 24.4653Z" fill="white"/>
<path d="M9.1863 25.2956C9.11101 25.2956 9.04909 25.3506 9.04909 25.4174C9.04909 25.5485 9.3229 25.5485 9.3229 25.4174C9.3229 25.3506 9.26158 25.2956 9.1863 25.2956ZM9.1863 26.8965C8.37517 26.8965 7.71643 26.233 7.71643 25.4174C7.71643 24.6018 8.37517 23.9383 9.1863 23.9383C9.99621 23.9383 10.6556 24.6018 10.6556 25.4174C10.6556 26.233 9.99621 26.8965 9.1863 26.8965Z" fill="white"/>
<path d="M7.97908 13.9157C7.68098 13.9157 7.43812 14.15 7.43812 14.4388C7.43812 14.7276 7.68098 14.9619 7.97908 14.9619C8.27718 14.9619 8.52003 14.7276 8.52003 14.4388C8.52003 14.15 8.27718 13.9157 7.97908 13.9157ZM7.97908 16.3198C6.94635 16.3198 6.10547 15.4758 6.10547 14.4388C6.10547 13.4018 6.94635 12.5584 7.97908 12.5584C9.01181 12.5584 9.85269 13.4018 9.85269 14.4388C9.85269 15.4758 9.01181 16.3198 7.97908 16.3198Z" fill="white"/>
</svg>
