<svg width="40" height="40" viewBox="0 0 40 40" fill="none" xmlns="http://www.w3.org/2000/svg">
<path d="M20.0003 1.33323C9.70877 1.33323 1.33526 9.70678 1.33526 19.9997C1.33526 30.2926 9.70877 38.6662 20.0003 38.6662C30.2918 38.6662 38.6647 30.2926 38.6647 19.9997C38.6647 9.70678 30.2918 1.33323 20.0003 1.33323ZM20.0003 40C8.97209 40 0 31.0276 0 19.9997C0 8.97183 8.97209 -3.24836e-06 20.0003 -3.24836e-06C31.0279 -3.24836e-06 40 8.97183 40 19.9997C40 31.0276 31.0279 40 20.0003 40Z" fill="white"/>
<path d="M20.0003 20.6665C19.6311 20.6665 19.3324 20.3683 19.3324 19.9996V7.3026C19.3324 6.93391 19.6311 6.63568 20.0003 6.63568C20.3696 6.63568 20.6683 6.93391 20.6683 7.3026V19.9996C20.6683 20.3683 20.3696 20.6665 20.0003 20.6665Z" fill="white"/>
<path d="M29.6679 20.6665H20.0005C19.6312 20.6665 19.3325 20.3683 19.3325 19.9996C19.3325 19.6315 19.6312 19.3333 20.0005 19.3333H29.6679C30.0371 19.3333 30.3358 19.6315 30.3358 19.9996C30.3358 20.3683 30.0371 20.6665 29.6679 20.6665Z" fill="white"/>
</svg>
