<svg width="40" height="40" viewBox="0 0 40 40" fill="none" xmlns="http://www.w3.org/2000/svg">
<path d="M33.6755 33.6719H33.6883H33.6755ZM20.0001 1.3333C15.0139 1.3333 10.3246 3.27462 6.79764 6.79949C-0.483534 14.0788 -0.483534 25.9218 6.79764 33.2017C10.3246 36.7266 15.0139 38.6679 20.0001 38.6667C24.9869 38.6667 29.6756 36.7266 33.2019 33.2017C40.4837 25.9218 40.4837 14.0788 33.2019 6.79949C29.675 3.27462 24.9869 1.3333 20.0001 1.3333V1.3333ZM20.0007 40C14.6549 40.0018 9.62966 37.9208 5.85039 34.142C-1.95013 26.3433 -1.95013 13.6555 5.85039 5.8592C9.62966 2.08043 14.6549 5.25558e-06 20.0001 5.25558e-06H20.0007C25.3453 5.25558e-06 30.3705 2.08043 34.1492 5.8592C41.9503 13.6555 41.9503 26.3433 34.1492 34.142C30.3705 37.9208 25.3453 40 20.0007 40" fill="white"/>
<path d="M12.0892 28.5752C11.9179 28.5752 11.7472 28.5102 11.6168 28.3814C11.3553 28.1208 11.3547 27.6987 11.6156 27.4387L27.4367 11.6226C27.6982 11.3608 28.1212 11.3621 28.3827 11.6202C28.6442 11.8802 28.6448 12.3023 28.3839 12.5629L12.5628 28.3784C12.4324 28.5102 12.2611 28.5752 12.0892 28.5752Z" fill="white"/>
<path d="M27.9103 28.5752C27.7384 28.5752 27.5671 28.5102 27.4367 28.3784L11.6156 12.5629C11.3547 12.3023 11.3553 11.8802 11.6168 11.6202C11.8789 11.3608 12.3019 11.3608 12.5628 11.6226L28.3839 27.4387C28.6448 27.6987 28.6442 28.1208 28.3827 28.3814C28.2523 28.5102 28.0816 28.5752 27.9103 28.5752Z" fill="white"/>
</svg>
