<svg width="40" height="40" viewBox="0 0 40 40" fill="none" xmlns="http://www.w3.org/2000/svg">
<path d="M15.1296 1.32581C7.52198 1.32581 1.33323 7.46888 1.33323 15.0191C1.33323 22.5699 7.52198 28.713 15.1296 28.713H27.9201C33.8459 28.713 38.6668 23.9281 38.6668 18.0465C38.6668 12.1644 33.8459 7.37951 27.9201 7.37951C27.6122 7.37951 27.3085 7.40064 27.0066 7.4254C26.7661 7.44654 26.5426 7.33964 26.4065 7.1476C23.8184 3.50234 19.6031 1.32581 15.1296 1.32581ZM27.9201 30.0386H15.1296C6.78703 30.0386 0 23.3006 0 15.0191C0 6.73754 6.78703 0.000208041 15.1296 0.000208041C19.9086 0.000208041 24.4191 2.2643 27.272 6.07625C27.4871 6.06296 27.7027 6.0539 27.9201 6.0539C34.5808 6.0539 40 11.4336 40 18.0465C40 24.6589 34.5808 30.0386 27.9201 30.0386" fill="white"/>
<path d="M12.3776 40C12.275 40 12.1699 39.9758 12.0715 39.9257C11.7447 39.7578 11.6172 39.358 11.7866 39.0325L14.645 33.5387C14.8145 33.2144 15.2142 33.0851 15.5434 33.2548C15.8702 33.4227 15.9983 33.8225 15.8288 34.148L12.9698 39.6419C12.8514 39.8696 12.6194 40 12.3776 40Z" fill="white"/>
<path d="M19.2364 40C19.1337 40 19.0287 39.9758 18.9303 39.9257C18.6035 39.7578 18.4759 39.358 18.6454 39.0325L21.5038 33.5387C21.6733 33.2144 22.0735 33.0851 22.4021 33.2548C22.7289 33.4227 22.8571 33.8225 22.6876 34.148L19.8286 39.6419C19.7102 39.8696 19.4781 40 19.2364 40Z" fill="white"/>
<path d="M26.095 40C25.9924 40 25.8873 39.9758 25.7889 39.9257C25.4621 39.7578 25.3346 39.358 25.504 39.0325L28.363 33.5387C28.5319 33.2144 28.9334 33.0851 29.262 33.2548C29.5888 33.4227 29.7163 33.8225 29.5469 34.148L26.6872 39.6419C26.5688 39.8696 26.3368 40 26.095 40Z" fill="white"/>
</svg>
