<svg width="40" height="37" viewBox="0 0 40 37" fill="none" xmlns="http://www.w3.org/2000/svg">
<path d="M6.69116 1.3091C3.73675 1.3091 1.33325 3.6613 1.33325 6.55264V24.7702C1.33325 27.6616 3.73675 30.0144 6.69116 30.0144H20.0674C20.2448 30.0144 20.4142 30.0824 20.5388 30.2052L25.8657 35.4207L31.1957 30.2052C31.3202 30.0824 31.4884 30.0144 31.6652 30.0144H33.3088C36.2632 30.0144 38.6667 27.6616 38.6667 24.7702V6.55264C38.6667 3.6613 36.2632 1.3091 33.3088 1.3091H6.69116ZM25.8657 37C25.695 37 25.5249 36.9362 25.3944 36.8086L19.7917 31.3235H6.69116C3.00118 31.3235 0 28.3832 0 24.7702V6.55264C0 2.93966 3.00118 8.38851e-06 6.69116 8.38851e-06H33.3088C36.9988 8.38851e-06 40 2.93966 40 6.55264V24.7702C40 28.3832 36.9988 31.3235 33.3088 31.3235H31.9416L26.3358 36.8086C26.2071 36.9362 26.0364 37 25.8657 37" fill="white"/>
<path d="M31.4974 10.8149H8.50226C8.13356 10.8149 7.83533 10.5221 7.83533 10.1601C7.83533 9.79868 8.13356 9.50585 8.50226 9.50585H31.4974C31.8661 9.50585 32.1643 9.79868 32.1643 10.1601C32.1643 10.5221 31.8661 10.8149 31.4974 10.8149Z" fill="white"/>
<path d="M31.4974 16.7554H8.50226C8.13356 16.7554 7.83533 16.4625 7.83533 16.1005C7.83533 15.7391 8.13356 15.4463 8.50226 15.4463H31.4974C31.8661 15.4463 32.1643 15.7391 32.1643 16.1005C32.1643 16.4625 31.8661 16.7554 31.4974 16.7554Z" fill="white"/>
<path d="M31.4974 22.6953H8.50226C8.13356 22.6953 7.83533 22.4025 7.83533 22.0405C7.83533 21.679 8.13356 21.3862 8.50226 21.3862H31.4974C31.8661 21.3862 32.1643 21.679 32.1643 22.0405C32.1643 22.4025 31.8661 22.6953 31.4974 22.6953Z" fill="white"/>
</svg>
