<svg width="40" height="26" viewBox="0 0 40 26" fill="none" xmlns="http://www.w3.org/2000/svg">
<path d="M1.33323 24.6538H38.6659V1.34692H1.33323V24.6538ZM39.3328 26H0.666928C0.298242 26 0 25.6988 0 25.3265V0.673458C0 0.301162 0.298242 -4.43557e-07 0.666928 -4.43557e-07H39.3328C39.7015 -4.43557e-07 39.9997 0.301162 39.9997 0.673458V25.3265C39.9997 25.6988 39.7015 26 39.3328 26Z" fill="white"/>
<path d="M39.3331 6.41748H0.666675C0.298597 6.41748 0.000366211 6.11633 0.000366211 5.74404C0.000366211 5.37235 0.298597 5.0712 0.666675 5.0712H39.3331C39.7018 5.0712 40 5.37235 40 5.74404C40 6.11633 39.7018 6.41748 39.3331 6.41748Z" fill="white"/>
<path d="M39.3331 10.8813H0.666675C0.298597 10.8813 0.000366211 10.5802 0.000366211 10.2079C0.000366211 9.83622 0.298597 9.53507 0.666675 9.53507H39.3331C39.7018 9.53507 40 9.83622 40 10.2079C40 10.5802 39.7018 10.8813 39.3331 10.8813Z" fill="white"/>
</svg>
