<svg width="40" height="39" viewBox="0 0 40 39" fill="none" xmlns="http://www.w3.org/2000/svg">
<path d="M39.3348 34.7769H4.99674C4.62907 34.7769 4.33167 34.4861 4.33167 34.1266V0.650221C4.33167 0.29075 4.62907 -2.41833e-05 4.99674 -2.41833e-05C5.36381 -2.41833e-05 5.66121 0.29075 5.66121 0.650221V33.477H39.3348C39.7025 33.477 39.9999 33.7677 39.9999 34.1266C39.9999 34.4861 39.7025 34.7769 39.3348 34.7769Z" fill="white"/>
<path d="M35.0026 39C34.6349 39 34.3375 38.7092 34.3375 38.3498V5.5242H0.665077C0.297407 5.5242 0 5.23342 0 4.87395C0 4.51448 0.297407 4.22371 0.665077 4.22371H35.0026C35.3702 4.22371 35.6676 4.51448 35.6676 4.87395V38.3498C35.6676 38.7092 35.3702 39 35.0026 39Z" fill="white"/>
<path d="M1.48353 38.2021C1.31272 38.2021 1.14251 38.1388 1.01289 38.0109C0.753641 37.7574 0.753641 37.3452 1.0141 37.0918L38.0464 0.988328C38.3063 0.735455 38.7272 0.735454 38.9865 0.989512C39.2451 1.24357 39.2451 1.65575 38.9853 1.90921L1.95296 38.012C1.82334 38.1388 1.65374 38.2021 1.48353 38.2021Z" fill="white"/>
</svg>
