<svg width="37" height="40" viewBox="0 0 37 40" fill="none" xmlns="http://www.w3.org/2000/svg">
<path d="M7.27203 26.6909C6.44513 26.6909 5.62004 26.8664 4.84339 27.2175C3.39116 27.8716 2.28096 29.0566 1.71677 30.5537C0.552088 33.6391 2.09935 37.1023 5.16543 38.2739C6.64792 38.8393 8.25996 38.792 9.70734 38.139C11.1584 37.4837 12.2686 36.2994 12.8327 34.8028V34.8022C13.9974 31.7174 12.4502 28.2543 9.38469 27.0833C8.69883 26.8209 7.98453 26.6909 7.27203 26.6909ZM7.27748 40C6.40578 40 5.53227 39.8397 4.69265 39.5196C0.943141 38.0868 -0.94917 33.8535 0.473393 30.0812C1.1647 28.2512 2.52249 26.8021 4.29857 26.0016C6.06921 25.2029 8.04264 25.1434 9.85686 25.8376C13.6064 27.2691 15.4987 31.5024 14.0755 35.2753C13.3854 37.1047 12.0276 38.5533 10.2522 39.355C9.30115 39.7844 8.29023 40 7.27748 40" fill="white"/>
<path d="M13.4542 35.7056C13.3755 35.7056 13.2968 35.6922 13.2188 35.6624C12.8761 35.5319 12.703 35.1468 12.8325 34.8024L25.8003 0.430075C25.931 0.0857021 26.3148 -0.0861792 26.6574 0.0431885C27.0001 0.173771 27.1732 0.558838 27.0436 0.903211L14.0759 35.2756C13.9754 35.5416 13.7224 35.7056 13.4542 35.7056Z" fill="white"/>
<path d="M29.7285 26.6909C29.016 26.6909 28.3017 26.8209 27.6159 27.0833C24.5498 28.2549 23.0025 31.7174 24.1672 34.8022C24.732 36.2994 25.8422 37.4837 27.2932 38.139C28.7406 38.792 30.3532 38.8393 31.8351 38.2739C34.9006 37.1023 36.4479 33.6391 35.2832 30.5537C34.719 29.0572 33.6094 27.8722 32.1578 27.2175C31.3805 26.8664 30.5554 26.6909 29.7285 26.6909ZM29.7231 40C28.7103 40 27.7 39.7844 26.7484 39.355C24.9729 38.5539 23.6151 37.1047 22.9238 35.2753C21.5013 31.503 23.3936 27.2691 27.1437 25.8376C28.9579 25.144 30.9307 25.2023 32.7026 26.0016C34.4781 26.8027 35.8359 28.2512 36.5266 30.0818C37.9491 33.8535 36.0574 38.0874 32.3079 39.5196C31.4689 39.8397 30.5948 40 29.7231 40" fill="white"/>
<path d="M23.5457 35.7056C23.2776 35.7056 23.0245 35.5416 22.924 35.2756L9.95632 0.903211C9.82678 0.558838 9.9999 0.173771 10.3425 0.0431885C10.6864 -0.0861792 11.0696 0.0857021 11.1997 0.430075L24.1674 34.8024C24.297 35.1468 24.1238 35.5319 23.7812 35.6624C23.7031 35.6922 23.6244 35.7056 23.5457 35.7056Z" fill="white"/>
</svg>
