<svg width="40" height="41" viewBox="0 0 40 41" fill="none" xmlns="http://www.w3.org/2000/svg">
<path d="M25.2107 5.43555C24.842 5.43555 24.5438 5.13976 24.5438 4.7741V1.32227H15.4547V4.7741C15.4547 5.13976 15.1565 5.43555 14.7884 5.43555C14.4197 5.43555 14.1215 5.13976 14.1215 4.7741V0.661428C14.1215 0.295764 14.4197 -2.06293e-05 14.7884 -2.06293e-05H25.2107C25.5794 -2.06293e-05 25.8776 0.295764 25.8776 0.661428V4.7741C25.8776 5.13976 25.5794 5.43555 25.2107 5.43555Z" fill="white"/>
<path d="M35.0023 41H4.997C4.62892 41 4.33069 40.7042 4.33069 40.3386V6.4402C4.33069 6.07454 4.62892 5.77935 4.997 5.77935C5.36569 5.77935 5.66392 6.07454 5.66392 6.4402V39.6777H34.3354V6.4402C34.3354 6.07454 34.6336 5.77935 35.0023 5.77935C35.371 5.77935 35.6692 6.07454 35.6692 6.4402V40.3386C35.6692 40.7042 35.371 41 35.0023 41Z" fill="white"/>
<path d="M39.3331 6.41113H0.666315C0.298233 6.41113 0 6.11535 0 5.74968C0 5.38462 0.298233 5.08884 0.666315 5.08884H39.3331C39.7018 5.08884 40 5.38462 40 5.74968C40 6.11535 39.7018 6.41113 39.3331 6.41113Z" fill="white"/>
<path d="M12.1424 34.6851C11.7737 34.6851 11.4755 34.3893 11.4755 34.0236V12.7554C11.4755 12.3898 11.7737 12.094 12.1424 12.094C12.5111 12.094 12.8093 12.3898 12.8093 12.7554V34.0236C12.8093 34.3893 12.5111 34.6851 12.1424 34.6851Z" fill="white"/>
<path d="M19.9998 34.6851C19.6311 34.6851 19.3329 34.3893 19.3329 34.0236V12.7554C19.3329 12.3898 19.6311 12.094 19.9998 12.094C20.3685 12.094 20.6667 12.3898 20.6667 12.7554V34.0236C20.6667 34.3893 20.3685 34.6851 19.9998 34.6851Z" fill="white"/>
<path d="M27.8572 34.6851C27.4885 34.6851 27.1903 34.3893 27.1903 34.0236V12.7554C27.1903 12.3898 27.4885 12.094 27.8572 12.094C28.2259 12.094 28.5241 12.3898 28.5241 12.7554V34.0236C28.5241 34.3893 28.2259 34.6851 27.8572 34.6851Z" fill="white"/>
</svg>
