<svg width="40" height="36" viewBox="0 0 40 36" fill="none" xmlns="http://www.w3.org/2000/svg">
<path d="M39.3332 20.0967H26.3216C25.9529 20.0967 25.6547 19.8042 25.6547 19.4427C25.6547 19.0818 25.9529 18.7893 26.3216 18.7893H38.3152L30.54 1.30744H9.45984L1.68523 18.7893H13.6782C14.0469 18.7893 14.3451 19.0818 14.3451 19.4427C14.3451 19.8042 14.0469 20.0967 13.6782 20.0967H0.666631C0.442503 20.0967 0.232344 19.9853 0.109043 19.8013C-0.0142574 19.6166 -0.0342997 19.3837 0.0555942 19.1818L8.41148 0.392572C8.51777 0.153731 8.75769 6.2477e-05 9.02312 6.2477e-05H30.9773C31.2421 6.2477e-05 31.4826 0.153731 31.5883 0.392572L39.9442 19.1818C40.0341 19.3837 40.0141 19.6166 39.8914 19.8013C39.7675 19.9853 39.5579 20.0967 39.3332 20.0967Z" fill="white"/>
<path d="M1.33347 34.6926H38.6662V20.0965H26.8397C25.9577 23.0239 23.1637 25.0967 19.9998 25.0967C16.8359 25.0967 14.0425 23.0239 13.16 20.0965H1.33347V34.6926ZM39.3331 36H0.666553C0.298473 36 0.000244141 35.7076 0.000244141 35.3466V19.4431C0.000244141 19.0816 0.298473 18.7891 0.666553 18.7891H13.6787C13.9927 18.7891 14.2648 19.0047 14.331 19.3067C14.8935 21.9042 17.2781 23.7893 19.9998 23.7893C22.7222 23.7893 25.1068 21.9042 25.6692 19.3067C25.7348 19.0047 26.0069 18.7891 26.3216 18.7891H39.3331C39.7018 18.7891 40 19.0816 40 19.4431V35.3466C40 35.7076 39.7018 36 39.3331 36" fill="white"/>
<path d="M19.9999 25.0967C16.6526 25.0967 13.7195 22.7762 13.0259 19.5789C12.9499 19.2257 13.1795 18.8785 13.5397 18.8034C13.9035 18.7308 14.254 18.9547 14.3305 19.3067C14.893 21.9042 17.2782 23.7893 19.9999 23.7893C22.7217 23.7893 25.1069 21.9042 25.6693 19.3067C25.7465 18.9535 26.1006 18.7272 26.4601 18.8034C26.8203 18.8785 27.0499 19.2257 26.974 19.5789C26.2804 22.7762 23.3473 25.0967 19.9999 25.0967Z" fill="white"/>
</svg>
