<svg width="41" height="40" viewBox="0 0 41 40" fill="none" xmlns="http://www.w3.org/2000/svg">
<path d="M21.4665 7.55109V38.4172L39.684 32.4483V1.58219L21.4665 7.55109ZM20.8082 39.9995C20.6709 39.9995 20.5354 39.9564 20.4215 39.872C20.2512 39.7462 20.1505 39.5464 20.1505 39.3332V7.06578C20.1505 6.77727 20.334 6.52034 20.6061 6.43227L40.1396 0.0321122C40.3387 -0.0334868 40.5587 0.00174554 40.729 0.127477C40.8992 0.253208 40.9999 0.453038 40.9999 0.666235V32.933C40.9999 33.2222 40.8165 33.4791 40.5443 33.5672L21.0108 39.9673C20.9449 39.9892 20.8765 39.9995 20.8082 39.9995Z" fill="white"/>
<path d="M1.31594 32.444L20.1504 38.4256V7.55584L1.31594 1.57418V32.444ZM20.8087 40C20.7421 40 20.6762 39.9903 20.612 39.9696L0.461029 33.5695C0.187049 33.4826 0 33.2251 0 32.9335V0.666723C0 0.454134 0.0995199 0.254911 0.268584 0.129179C0.438247 0.00466275 0.657071 -0.0317827 0.854313 0.0307793L21.0053 6.43033C21.2793 6.51718 21.4663 6.77472 21.4663 7.06627V39.3331C21.4663 39.5457 21.3668 39.7449 21.1977 39.8706C21.0832 39.9557 20.9465 40 20.8087 40" fill="white"/>
</svg>
