<svg width="31" height="40" viewBox="0 0 31 40" fill="none" xmlns="http://www.w3.org/2000/svg">
<path d="M10.7628 38.6609H26.9577L29.5642 11.7212H8.15696L10.7628 38.6609ZM27.5802 40H10.1403C9.78766 40 9.49231 39.7371 9.4599 39.3942L6.72379 11.1148C6.7051 10.9263 6.76866 10.7402 6.89889 10.6005C7.0285 10.4614 7.21232 10.3815 7.40486 10.3815H30.3163C30.5082 10.3815 30.692 10.4614 30.8217 10.6005C30.9519 10.7402 31.0154 10.9263 30.9968 11.1148L28.2613 39.3942C28.2282 39.7371 27.9329 40 27.5802 40" fill="white"/>
<path d="M12.7451 11.7207C12.4392 11.7207 12.16 11.5182 12.0828 11.2138L9.89562 2.67368L0.584355 1.33401C0.210484 1.28032 -0.0474867 0.939917 0.00734773 0.573888C0.061559 0.207859 0.401158 -0.0532427 0.78313 0.00898227L10.548 1.41392C10.8216 1.45358 11.044 1.65062 11.1113 1.91356L13.4088 10.8886C13.501 11.2473 13.2785 11.6109 12.9121 11.7006C12.8561 11.714 12.8006 11.7207 12.7451 11.7207Z" fill="white"/>
</svg>
