<svg width="29" height="40" viewBox="0 0 29 40" fill="none" xmlns="http://www.w3.org/2000/svg">
<path d="M1.86619 6.77498H27.1337L25.751 4.65641H23.5088C23.2739 4.65641 23.0578 4.52598 22.9433 4.31388L21.328 1.33777H7.67239L6.05716 4.31388C5.94263 4.52598 5.72656 4.65641 5.49219 4.65641H3.2494L1.86619 6.77498ZM28.3522 8.11279H0.648272C0.407994 8.11279 0.18897 7.97627 0.0762111 7.75807C-0.036548 7.53988 -0.02356 7.27536 0.111042 7.06997L2.3674 3.61358C2.48784 3.42891 2.68856 3.31859 2.90463 3.31859H5.11259L6.72781 0.34187C6.84234 0.130379 7.05842 -5.02879e-05 7.29279 -5.02879e-05H21.7077C21.9426 -5.02879e-05 22.1581 0.130379 22.2726 0.34187L23.8884 3.31859H26.0958C26.3119 3.31859 26.5132 3.42891 26.633 3.61358L28.8894 7.06997C29.0234 7.27536 29.0364 7.53988 28.9242 7.75807C28.8115 7.97627 28.5919 8.11279 28.3522 8.11279" fill="white"/>
<path d="M5.71039 38.6622H23.2896L26.1086 8.113H2.89141L5.71039 38.6622ZM23.8788 40H5.12121C4.78706 40 4.50782 39.7379 4.47653 39.3948L1.53417 7.50718C1.51646 7.32006 1.57668 7.13356 1.69947 6.99399C1.82168 6.85442 1.99642 6.77518 2.17884 6.77518H26.8211C27.0035 6.77518 27.1783 6.85442 27.3011 6.99399C27.4239 7.13356 27.4835 7.32006 27.4658 7.50718L24.5234 39.3948C24.4921 39.7379 24.2129 40 23.8788 40" fill="white"/>
<path d="M24.5691 32.1611H15.3417C14.9834 32.1611 14.6941 31.8619 14.6941 31.4919V16.1378C14.6941 15.7678 14.9834 15.4686 15.3417 15.4686H26.0196C26.3773 15.4686 26.6672 15.7678 26.6672 16.1378C26.6672 16.5071 26.3773 16.8064 26.0196 16.8064H15.9899V30.8233H24.5691C24.9274 30.8233 25.2173 31.1226 25.2173 31.4919C25.2173 31.8619 24.9274 32.1611 24.5691 32.1611Z" fill="white"/>
</svg>
