<svg width="39" height="40" viewBox="0 0 39 40" fill="none" xmlns="http://www.w3.org/2000/svg">
<path d="M19.7665 27.0989L29.9766 29.9203L27.1492 19.7307L19.7665 27.0989ZM30.9349 31.5444C30.8753 31.5444 30.815 31.5365 30.7566 31.5195L18.3062 28.078C18.0774 28.0155 17.8992 27.8357 17.8389 27.6055C17.7781 27.3765 17.8438 27.1329 18.0123 26.9647L27.0153 17.9789C27.1821 17.8125 27.4285 17.7475 27.6572 17.8058C27.8872 17.866 28.0679 18.0445 28.1312 18.2723L31.578 30.6989C31.6419 30.931 31.5768 31.1794 31.407 31.3489C31.2793 31.4752 31.1095 31.5444 30.9349 31.5444Z" fill="white"/>
<path d="M1.61235 9.65239L18.4842 26.4936L26.543 18.4505L9.67107 1.60929L1.61235 9.65239ZM18.4842 28.1025C18.3133 28.1025 18.1423 28.0375 18.0121 27.9076L0.195916 10.1237C0.0705784 9.9986 0 9.82974 0 9.65239C0 9.47503 0.0705784 9.30617 0.195916 9.18105L9.19892 0.195284C9.45994 -0.0652871 9.8822 -0.0652871 10.1432 0.195284L27.9594 17.9791C28.0847 18.1043 28.1553 18.2737 28.1553 18.4505C28.1553 18.6278 28.0847 18.7967 27.9594 18.9218L18.9564 27.9076C18.8262 28.0375 18.6552 28.1025 18.4842 28.1025Z" fill="white"/>
<path d="M38.332 40H0.668063C0.298743 40 0.000610352 39.7018 0.000610352 39.3331V27.082C0.000610352 26.7139 0.298743 26.4157 0.668063 26.4157C1.03738 26.4157 1.33612 26.7139 1.33612 27.082V38.6668H37.6639V2.40544H26.0586C25.6893 2.40544 25.3906 2.10721 25.3906 1.73852C25.3906 1.36983 25.6893 1.0716 26.0586 1.0716H38.332C38.7013 1.0716 39.0001 1.36983 39.0001 1.73852V39.3331C39.0001 39.7018 38.7013 40 38.332 40Z" fill="white"/>
</svg>
