<svg width="40" height="40" viewBox="0 0 40 40" fill="none" xmlns="http://www.w3.org/2000/svg">
<path d="M1.33322 16.4159H16.4157V1.32889H1.33322V16.4159ZM17.082 17.7456H0.666275C0.297581 17.7456 0 17.4483 0 17.0808V0.664043C0 0.297115 0.297581 -0.000135158 0.666275 -0.000135158H17.082C17.4507 -0.000135158 17.7483 0.297115 17.7483 0.664043V17.0808C17.7483 17.4483 17.4507 17.7456 17.082 17.7456Z" fill="white"/>
<path d="M23.5849 16.4159H38.6673V1.32889H23.5849V16.4159ZM39.3336 17.7456H22.9179C22.5492 17.7456 22.251 17.4483 22.251 17.0808V0.664043C22.251 0.297115 22.5492 -0.000135158 22.9179 -0.000135158H39.3336C39.7023 -0.000135158 40 0.297115 40 0.664043V17.0808C40 17.4483 39.7023 17.7456 39.3336 17.7456Z" fill="white"/>
<path d="M1.33322 38.6703H16.4157V23.5821H1.33322V38.6703ZM17.082 40H0.666275C0.297581 40 0 39.7027 0 39.3352V22.9178C0 22.5509 0.297581 22.2536 0.666275 22.2536H17.082C17.4507 22.2536 17.7483 22.5509 17.7483 22.9178V39.3352C17.7483 39.7027 17.4507 40 17.082 40Z" fill="white"/>
<path d="M23.5849 38.6703H38.6673V23.5821H23.5849V38.6703ZM39.3336 40H22.9179C22.5492 40 22.251 39.7027 22.251 39.3352V22.9178C22.251 22.5509 22.5492 22.2536 22.9179 22.2536H39.3336C39.7023 22.2536 40 22.5509 40 22.9178V39.3352C40 39.7027 39.7023 40 39.3336 40Z" fill="white"/>
</svg>
