<svg width="24" height="40" viewBox="0 0 24 40" fill="none" xmlns="http://www.w3.org/2000/svg">
<path d="M12.0003 1.33318C6.10965 1.33318 1.31697 7.79163 1.31697 15.7303C1.31697 23.6678 6.10965 30.1262 12.0003 30.1262C17.8904 30.1262 22.683 23.6678 22.683 15.7303C22.683 7.79163 17.8904 1.33318 12.0003 1.33318ZM12.0003 31.4595C5.38367 31.4595 0 24.4033 0 15.7303C0 7.05729 5.38367 -6.01607e-05 12.0003 -6.01607e-05C18.6169 -6.01607e-05 24 7.05729 24 15.7303C24 24.4033 18.6169 31.4595 12.0003 31.4595Z" fill="white"/>
<path d="M12.0003 40C11.6361 40 11.3416 39.7018 11.3416 39.3331V12.4831C11.3416 12.3057 11.4106 12.1369 11.5341 12.0117L14.2143 9.29061C14.4717 9.03125 14.8887 9.03125 15.1461 9.28878C15.4034 9.54936 15.4034 9.9715 15.1473 10.2333L12.6591 12.7588V39.3331C12.6591 39.7018 12.3645 40 12.0003 40Z" fill="white"/>
<path d="M18.0988 40H5.90171C5.53812 40 5.24353 39.7018 5.24353 39.3331C5.24353 38.965 5.53812 38.6668 5.90171 38.6668H18.0988C18.463 38.6668 18.7576 38.965 18.7576 39.3331C18.7576 39.7018 18.463 40 18.0988 40Z" fill="white"/>
<path d="M12.0002 21.7759C11.825 21.7759 11.6576 21.7054 11.534 21.5803L5.0434 14.9919C4.7866 14.7301 4.7866 14.3085 5.0446 14.048C5.30199 13.7904 5.71838 13.7886 5.97577 14.0492L12.0002 20.1651L16.9657 15.1249C17.2231 14.8643 17.6395 14.8655 17.8969 15.1237C18.1549 15.3842 18.1549 15.8058 17.8981 16.0676L12.4664 21.5803C12.3428 21.7054 12.1754 21.7759 12.0002 21.7759Z" fill="white"/>
<path d="M12.0003 13.1499C11.8311 13.1499 11.6625 13.0849 11.5341 12.9543L7.18244 8.53793C6.92564 8.27615 6.92564 7.85461 7.18364 7.59525C7.44163 7.33346 7.85802 7.33589 8.11481 7.59525L12.4665 12.0116C12.7233 12.2734 12.7233 12.6956 12.4653 12.9543C12.3369 13.0849 12.1689 13.1499 12.0003 13.1499Z" fill="white"/>
</svg>
