<svg width="40" height="40" viewBox="0 0 40 40" fill="none" xmlns="http://www.w3.org/2000/svg">
<path d="M33.8335 20.6675C33.4648 20.6675 33.1665 20.369 33.1665 19.9999C33.1665 12.7401 27.2607 6.83419 19.9998 6.83419C12.7395 6.83419 6.83313 12.7401 6.83313 19.9999C6.83313 20.369 6.5349 20.6675 6.1662 20.6675C5.79811 20.6675 5.49988 20.369 5.49988 19.9999C5.49988 12.0044 12.0052 5.49968 19.9998 5.49968C27.9951 5.49968 34.5004 12.0044 34.5004 19.9999C34.5004 20.369 34.2022 20.6675 33.8335 20.6675Z" fill="white"/>
<path d="M20 1.33451C9.70693 1.33451 1.33325 9.70756 1.33325 20C1.33325 30.2924 9.70693 38.6655 20 38.6655C30.2931 38.6655 38.6668 30.2924 38.6668 20C38.6668 9.70756 30.2931 1.33451 20 1.33451ZM20 40C8.97136 40 0 31.0281 0 20C0 8.97191 8.97136 -1.29248e-06 20 -1.29248e-06C31.0286 -1.29248e-06 40 8.97191 40 20C40 31.0281 31.0286 40 20 40Z" fill="white"/>
<path d="M20 26.6969C18.8046 26.6969 17.8322 27.6691 17.8322 28.8638C17.8322 30.0591 18.8046 31.0312 20 31.0312C21.1954 31.0312 22.1678 30.0591 22.1678 28.8638C22.1678 27.6691 21.1954 26.6969 20 26.6969ZM20 32.3657C18.069 32.3657 16.4989 30.7947 16.4989 28.8638C16.4989 26.9328 18.069 25.3624 20 25.3624C21.9309 25.3624 23.5011 26.9328 23.5011 28.8638C23.5011 30.7947 21.9309 32.3657 20 32.3657Z" fill="white"/>
<path d="M20 26.6973C19.6313 26.6973 19.3331 26.3987 19.3331 26.0297V11.1288C19.3331 10.7604 19.6313 10.4619 20 10.4619C20.3687 10.4619 20.6669 10.7604 20.6669 11.1288V26.0297C20.6669 26.3987 20.3687 26.6973 20 26.6973Z" fill="white"/>
</svg>
