<svg width="46" height="39" viewBox="0 0 46 39" fill="none" xmlns="http://www.w3.org/2000/svg">
<path d="M39.7455 22.8442C39.574 22.8442 39.4026 22.7797 39.2723 22.6506C39.0141 22.3953 39.0165 21.9842 39.2783 21.7313L41.3999 19.6838C43.5082 17.6498 44.6699 14.9454 44.6699 12.0687C44.6699 9.19249 43.5082 6.48808 41.3999 4.45415C37.0404 0.247091 29.9484 0.247091 25.5889 4.45415L23.4673 6.50052C23.2067 6.75283 22.7861 6.74987 22.5268 6.49459C22.2692 6.23931 22.2716 5.82767 22.5334 5.57476L24.655 3.52839C29.5284 -1.17441 37.4603 -1.17441 42.3338 3.52839C44.6984 5.80931 46 8.84185 46 12.0687C46 15.2961 44.6984 18.3286 42.3338 20.6095L40.2128 22.6571C40.0831 22.782 39.9146 22.8442 39.7455 22.8442Z" fill="white"/>
<path d="M6.2551 22.8442C6.08602 22.8442 5.91756 22.782 5.78787 22.6571L3.66628 20.6095C1.30168 18.3286 0 15.2961 0 12.0687C0 8.84185 1.30168 5.80931 3.66628 3.52839C8.54031 -1.17619 16.471 -1.17619 21.345 3.52839L23.4672 5.57476C23.729 5.82708 23.7314 6.23931 23.4739 6.49459C23.2157 6.74987 22.794 6.75283 22.5334 6.50051L20.4112 4.45414C16.0528 0.247681 8.96087 0.247681 4.60012 4.45414C2.49186 6.48808 1.33016 9.19248 1.33016 12.0687C1.33016 14.9454 2.49186 17.6498 4.60012 19.6838L6.72232 21.7313C6.98411 21.9842 6.98653 22.3953 6.72838 22.6506C6.59809 22.7797 6.42659 22.8442 6.2551 22.8442Z" fill="white"/>
<path d="M23.0003 39C22.8312 39 22.6628 38.9378 22.5331 38.8128L5.78819 22.6569C5.5264 22.4046 5.52397 21.9929 5.78152 21.7376C6.04089 21.4818 6.46145 21.4794 6.72203 21.7311L23.0003 37.4363L39.2786 21.7311C39.5392 21.4794 39.9597 21.4818 40.2191 21.7376C40.4766 21.9929 40.4742 22.4046 40.2124 22.6569L23.4675 38.8128C23.3378 38.9378 23.1694 39 23.0003 39Z" fill="white"/>
</svg>
