<svg width="40" height="30" viewBox="0 0 40 30" fill="none" xmlns="http://www.w3.org/2000/svg">
<path d="M25.1823 28.6564H33.0796V10.9167C33.0796 10.5457 33.3779 10.2452 33.7459 10.2452H36.6329L20 1.43102L3.36711 10.2452H6.25406C6.62214 10.2452 6.92037 10.5457 6.92037 10.9167V28.6564H14.8177V16.503C14.8177 16.1315 15.1159 15.8309 15.4846 15.8309H24.5154C24.8841 15.8309 25.1823 16.1315 25.1823 16.503V28.6564ZM33.7459 30H24.5154C24.1473 30 23.8491 29.6994 23.8491 29.3285V17.1751H16.1509V29.3285C16.1509 29.6994 15.8527 30 15.4846 30H6.25406C5.88537 30 5.58714 29.6994 5.58714 29.3285V11.5888H0.666635C0.360508 11.5888 0.0926477 11.3782 0.0197603 11.0777C-0.0543418 10.7777 0.0847494 10.4661 0.356862 10.3223L19.6902 0.077589C19.8828 -0.0258619 20.1172 -0.0258619 20.3098 0.077589L39.6431 10.3223C39.9153 10.4661 40.0543 10.7777 39.9802 11.0777C39.9074 11.3782 39.6395 11.5888 39.3334 11.5888H34.4129V29.3285C34.4129 29.6994 34.1146 30 33.7459 30" fill="white"/>
</svg>
