<svg width="27" height="40" viewBox="0 0 27 40" fill="none" xmlns="http://www.w3.org/2000/svg">
<path d="M13.5028 1.33216C13.3319 1.33216 13.1622 1.33519 12.9907 1.34248C6.71963 1.59992 1.4967 6.94561 1.34845 13.2598C1.25044 17.4178 3.2389 21.302 6.66756 23.6481C7.90683 24.4976 8.64684 25.9057 8.64684 27.4163C8.64684 29.21 10.0938 30.6697 11.8727 30.6697H15.1274C16.9058 30.6697 18.3533 29.2112 18.3533 27.4188C18.3533 25.8978 19.0743 24.5012 20.2824 23.6828C23.6467 21.4034 25.6554 17.6175 25.6554 13.5555C25.6554 10.1613 24.304 7.00693 21.8512 4.67351C19.5736 2.50828 16.6264 1.33216 13.5028 1.33216ZM15.1274 32.0024H11.8727C9.35254 32.0024 7.30159 29.9465 7.30159 27.4188C7.30159 26.3447 6.77905 25.3446 5.90305 24.7447C2.10071 22.1429 -0.104608 17.8373 0.00382019 13.2282C0.168607 6.22609 5.96982 0.2969 12.9356 0.0109147C16.6056 -0.135418 20.1145 1.17489 22.7817 3.71233C25.5022 6.29895 27 9.79454 27 13.5555C27 18.0584 24.772 22.2553 21.0413 24.783C20.2003 25.3531 19.6979 26.338 19.6979 27.4188C19.6979 29.9465 17.6476 32.0024 15.1274 32.0024" fill="white"/>
<path d="M17.6217 34.6685H9.37807C9.00623 34.6685 8.70544 34.3703 8.70544 34.0018C8.70544 33.6338 9.00623 33.3357 9.37807 33.3357H17.6217C17.9935 33.3357 18.2943 33.6338 18.2943 34.0018C18.2943 34.3703 17.9935 34.6685 17.6217 34.6685Z" fill="white"/>
<path d="M17.6217 37.334H9.37807C9.00623 37.334 8.70544 37.0359 8.70544 36.6673C8.70544 36.2993 9.00623 36.0012 9.37807 36.0012H17.6217C17.9935 36.0012 18.2943 36.2993 18.2943 36.6673C18.2943 37.0359 17.9935 37.334 17.6217 37.334Z" fill="white"/>
<path d="M15.1673 40H11.833C11.4612 40 11.161 39.7019 11.161 39.3333C11.161 38.9654 11.4612 38.6672 11.833 38.6672H15.1673C15.5392 38.6672 15.84 38.9654 15.84 39.3333C15.84 39.7019 15.5392 40 15.1673 40Z" fill="white"/>
</svg>
