<svg width="38" height="30" viewBox="0 0 38 30" fill="none" xmlns="http://www.w3.org/2000/svg">
<path d="M37.3267 1.33936H0.673326C0.301096 1.33936 0 1.03972 0 0.669294C0 0.299478 0.301096 -0.000158016 0.673326 -0.000158016H37.3267C37.6989 -0.000158016 38 0.299478 38 0.669294C38 1.03972 37.6989 1.33936 37.3267 1.33936Z" fill="white"/>
<path d="M37.3267 20.4458H0.673326C0.301096 20.4458 0 20.1462 0 19.7757C0 19.4059 0.301096 19.1063 0.673326 19.1063H37.3267C37.6989 19.1063 38 19.4059 38 19.7757C38 20.1462 37.6989 20.4458 37.3267 20.4458Z" fill="white"/>
<path d="M25.64 10.8926H0.67357C0.30134 10.8926 0.000244141 10.5929 0.000244141 10.2225C0.000244141 9.8527 0.30134 9.55306 0.67357 9.55306H25.64C26.0122 9.55306 26.3133 9.8527 26.3133 10.2225C26.3133 10.5929 26.0122 10.8926 25.64 10.8926Z" fill="white"/>
<path d="M25.64 30H0.67357C0.30134 30 0.000244141 29.7004 0.000244141 29.3299C0.000244141 28.9601 0.30134 28.6605 0.67357 28.6605H25.64C26.0122 28.6605 26.3133 28.9601 26.3133 29.3299C26.3133 29.7004 26.0122 30 25.64 30Z" fill="white"/>
</svg>
