<svg width="40" height="40" viewBox="0 0 40 40" fill="none" xmlns="http://www.w3.org/2000/svg">
<path d="M32.1022 23.0391C31.9321 23.0391 31.762 22.9751 31.632 22.8465C31.3707 22.5887 31.3695 22.1685 31.6295 21.9095L35.8661 17.6731C39.6008 13.939 39.6008 7.863 35.8661 4.1283C34.058 2.32072 31.6544 1.32516 29.0972 1.32516C26.5411 1.32516 24.1376 2.32072 22.3295 4.1283L18.0923 8.3647C17.8335 8.62431 17.4112 8.62612 17.1493 8.36711C16.8881 8.10932 16.8869 7.68972 17.1469 7.43012L21.3835 3.19372C23.4437 1.13438 26.1833 -3.77005e-05 29.0972 -3.77005e-05C32.0123 -3.77005e-05 34.7518 1.13438 36.8121 3.19372C41.0626 7.4434 41.0626 14.358 36.8121 18.6077L32.5749 22.8435C32.4449 22.9739 32.2735 23.0391 32.1022 23.0391Z" fill="white"/>
<path d="M10.9022 40C7.9871 40 5.24757 38.8656 3.18791 36.8056C-1.06264 32.556 -1.06264 25.642 3.18791 21.3923L7.42449 17.1559C7.68513 16.8981 8.10739 16.8951 8.36743 17.1535C8.62869 17.4113 8.6299 17.8309 8.37047 18.0905L4.13329 22.3269C0.398565 26.061 0.398565 32.137 4.13329 35.8711C5.94202 37.6786 8.34556 38.6748 10.9022 38.6748C13.4583 38.6748 15.8618 37.6786 17.6705 35.8711L21.9071 31.6353C22.1677 31.3763 22.59 31.3751 22.85 31.6328C23.1113 31.8906 23.1125 32.3102 22.8531 32.5698L18.6159 36.8056C16.5562 38.8656 13.8167 40 10.9022 40Z" fill="white"/>
<path d="M10.7446 29.9155C10.5745 29.9155 10.405 29.8515 10.2743 29.7229C10.0131 29.4651 10.0119 29.0449 10.2719 28.7859L28.7821 10.2803C29.0427 10.0213 29.465 10.0201 29.725 10.2773C29.9863 10.5351 29.9875 10.9553 29.7281 11.2143L11.2173 29.7199C11.0873 29.8503 10.9159 29.9155 10.7446 29.9155Z" fill="white"/>
</svg>
