<svg width="40" height="43" viewBox="0 0 40 43" fill="none" xmlns="http://www.w3.org/2000/svg">
<path d="M27.9199 30.3687C27.5512 30.3687 27.253 30.0689 27.253 29.6983C27.253 29.3283 27.5512 29.0285 27.9199 29.0285C33.8458 29.0285 38.6667 24.191 38.6667 18.2447C38.6667 12.2985 33.8458 7.46097 27.9199 7.46097C27.6114 7.46097 27.3095 7.48173 27.0076 7.50737C26.7744 7.53424 26.543 7.42067 26.4063 7.22651C23.8181 3.53994 19.6021 1.34008 15.1292 1.34008C7.52209 1.34008 1.33325 7.55072 1.33325 15.1846C1.33325 22.8178 7.52209 29.0285 15.1292 29.0285C15.4979 29.0285 15.7962 29.3283 15.7962 29.6983C15.7962 30.0689 15.4979 30.3687 15.1292 30.3687C6.78713 30.3687 0 23.5572 0 15.1846C0 6.81133 6.78713 -0.000100217 15.1292 -0.000100217C19.9083 -0.000100217 24.4189 2.2889 27.2725 6.14338C27.4863 6.12994 27.7019 6.12078 27.9199 6.12078C34.5807 6.12078 40 11.5597 40 18.2447C40 24.9298 34.5807 30.3687 27.9199 30.3687Z" fill="white"/>
<path d="M22.0078 43C21.8305 43 21.6616 42.9292 21.5365 42.8034L13.2096 34.4326C12.949 34.1713 12.949 33.7469 13.2096 33.485C13.4702 33.2237 13.8917 33.2237 14.1523 33.485L22.0078 41.382L29.4607 33.8904C29.7207 33.6285 30.1428 33.6285 30.4034 33.8904C30.6634 34.1523 30.6634 34.5761 30.4034 34.838L22.4792 42.8034C22.3541 42.9292 22.1852 43 22.0078 43Z" fill="white"/>
<path d="M22.0078 43C21.6391 43 21.3408 42.7002 21.3408 42.3296V19.4006C21.3408 19.0299 21.6391 18.7302 22.0078 18.7302C22.3764 18.7302 22.6747 19.0299 22.6747 19.4006V42.3296C22.6747 42.7002 22.3764 43 22.0078 43Z" fill="white"/>
</svg>
