<svg width="34" height="40" viewBox="0 0 34 40" fill="none" xmlns="http://www.w3.org/2000/svg">
<path d="M13.6376 30.7466C13.4673 30.7466 13.297 30.6816 13.1674 30.551C12.9074 30.291 12.9074 29.8689 13.1674 29.6083L23.0016 19.7497L13.666 10.3922C13.4061 10.1316 13.4061 9.70945 13.666 9.44888C13.926 9.18892 14.3471 9.18892 14.6064 9.44888L24.4122 19.2784C24.6721 19.5389 24.6721 19.9611 24.4122 20.221L14.1078 30.551C13.9781 30.6816 13.8078 30.7466 13.6376 30.7466Z" fill="white"/>
<path d="M23.942 20.4165H0.665308C0.29751 20.4165 0 20.1183 0 19.7496C0 19.3815 0.29751 19.0833 0.665308 19.0833H23.942C24.3098 19.0833 24.6073 19.3815 24.6073 19.7496C24.6073 20.1183 24.3098 20.4165 23.942 20.4165Z" fill="white"/>
<path d="M33.3346 40H12.3035C11.9357 40 11.6382 39.7018 11.6382 39.3331C11.6382 38.965 11.9357 38.6668 12.3035 38.6668H32.6693V1.33323H12.3035C11.9357 1.33323 11.6382 1.035 11.6382 0.666916C11.6382 0.298227 11.9357 -3.24836e-06 12.3035 -3.24836e-06H33.3346C33.7024 -3.24836e-06 33.9999 0.298227 33.9999 0.666916V39.3331C33.9999 39.7018 33.7024 40 33.3346 40Z" fill="white"/>
</svg>
