<svg width="34" height="40" viewBox="0 0 34 40" fill="none" xmlns="http://www.w3.org/2000/svg">
<path d="M10.4722 30.7466C10.302 30.7466 10.1317 30.6816 10.002 30.551L0.195109 20.7215C0.0702878 20.5964 0 20.4269 0 20.2502C0 20.0728 0.0702878 19.9034 0.195109 19.7789L10.5007 9.44888C10.7607 9.18892 11.1812 9.18892 11.4411 9.44888C11.701 9.70945 11.701 10.1316 11.4411 10.3922L1.60571 20.2502L10.9424 29.6083C11.2024 29.8689 11.2024 30.291 10.9424 30.551C10.8128 30.6816 10.6425 30.7466 10.4722 30.7466Z" fill="white"/>
<path d="M23.942 20.9165H0.665307C0.29751 20.9165 0 20.6183 0 20.2496C0 19.8815 0.29751 19.5833 0.665307 19.5833H23.942C24.3098 19.5833 24.6073 19.8815 24.6073 20.2496C24.6073 20.6183 24.3098 20.9165 23.942 20.9165Z" fill="white"/>
<path d="M33.3347 40H12.3036C11.9358 40 11.6389 39.7018 11.6389 39.3331C11.6389 38.965 11.9358 38.6668 12.3036 38.6668H32.6694V1.33323H12.3036C11.9358 1.33323 11.6389 1.035 11.6389 0.666916C11.6389 0.298227 11.9358 -3.24836e-06 12.3036 -3.24836e-06H33.3347C33.7025 -3.24836e-06 34 0.298227 34 0.666916V39.3331C34 39.7018 33.7025 40 33.3347 40Z" fill="white"/>
</svg>
