<svg width="40" height="31" viewBox="0 0 40 31" fill="none" xmlns="http://www.w3.org/2000/svg">
<path d="M1.3332 29.6866H38.6661V1.31432H1.3332V29.6866ZM39.3331 31H0.666934C0.298245 31 0 30.7062 0 30.343V0.657297C0 0.294686 0.298245 0.000895611 0.666934 0.000895611H39.3331C39.7018 0.000895611 40 0.294686 40 0.657297V30.343C40 30.7062 39.7018 31 39.3331 31" fill="white"/>
<path d="M19.9999 20.1753C19.8298 20.1753 19.6591 20.1113 19.5291 19.9838L0.312982 1.12203C0.0524095 0.866524 0.0511931 0.450657 0.311766 0.193358C0.571731 -0.062744 0.993264 -0.0645385 1.25444 0.192162L19.9999 18.592L38.7453 0.192162C39.0065 -0.0645385 39.428 -0.0645391 39.688 0.193358C39.9486 0.450657 39.9473 0.866524 39.6868 1.12203L20.4706 19.9838C20.3406 20.1113 20.1699 20.1753 19.9999 20.1753Z" fill="white"/>
</svg>
