<svg width="43" height="39" viewBox="0 0 43 39" fill="none" xmlns="http://www.w3.org/2000/svg">
<path d="M10.9419 31.1622C11.0693 31.1622 11.1973 31.1983 11.3077 31.2694L21.1296 37.5775L31.9792 30.9383C32.1928 30.8086 32.4634 30.8063 32.6764 30.9324L41.6682 36.2166V7.84829L32.3469 1.45426L21.5215 9.40815C21.2898 9.57989 20.97 9.58285 20.7334 9.41763L10.9407 2.57708L1.33179 9.23582V36.2972L10.6173 31.2445C10.7186 31.1894 10.8308 31.1622 10.9419 31.1622ZM21.1211 39C20.9937 39 20.8663 38.9645 20.7546 38.8928L10.9134 32.5716L0.990193 37.9713C0.785117 38.0839 0.532715 38.0815 0.328244 37.9642C0.124988 37.8476 0 37.6344 0 37.404V8.90004C0 8.68922 0.104965 8.49201 0.280312 8.37002L10.556 1.24876C10.7872 1.08709 11.0972 1.08887 11.3296 1.24995L21.1114 8.0828L31.9325 0.131279C32.1631 -0.0386831 32.4798 -0.0440152 32.7164 0.118841L42.7173 6.97834C42.8944 7.10033 43 7.29931 43 7.51073V37.3667C43 37.6012 42.8708 37.8174 42.662 37.9323C42.4533 38.0489 42.1967 38.0454 41.991 37.9234L32.3403 32.2518L21.4748 38.9011C21.3662 38.9674 21.2437 39 21.1211 39Z" fill="white"/>
<path d="M10.9418 20.8149C10.5735 20.8149 10.2756 20.5242 10.2756 20.1647V1.77854C10.2756 1.41908 10.5735 1.1289 10.9418 1.1289C11.3101 1.1289 11.608 1.41908 11.608 1.77854V20.1647C11.608 20.5242 11.3101 20.8149 10.9418 20.8149Z" fill="white"/>
<path d="M21.1208 39C20.7525 39 20.4546 38.7092 20.4546 38.3498V22.1885C20.4546 21.829 20.7525 21.5383 21.1208 21.5383C21.4891 21.5383 21.787 21.829 21.787 22.1885V38.3498C21.787 38.7092 21.4891 39 21.1208 39Z" fill="white"/>
<path d="M32.3333 20.1504C31.965 20.1504 31.6671 19.8596 31.6671 19.5002V0.650889C31.6671 0.291422 31.965 0.000647453 32.3333 0.000647453C32.7016 0.000647453 32.9995 0.291422 32.9995 0.650889V19.5002C32.9995 19.8596 32.7016 20.1504 32.3333 20.1504Z" fill="white"/>
</svg>
