<svg width="28" height="22" viewBox="0 0 28 22" fill="none" xmlns="http://www.w3.org/2000/svg">
<path d="M27.3331 1.34668H0.666912C0.298227 1.34668 0 1.04541 0 0.672956C0 0.301119 0.298227 -0.000154251 0.666912 -0.000154251H27.3331C27.7018 -0.000154251 28 0.301119 28 0.672956C28 1.04541 27.7018 1.34668 27.3331 1.34668Z" fill="white"/>
<path d="M27.3331 11.6738H0.666912C0.298227 11.6738 0 11.3726 0 11.0001C0 10.6283 0.298227 10.327 0.666912 10.327H27.3331C27.7018 10.327 28 10.6283 28 11.0001C28 11.3726 27.7018 11.6738 27.3331 11.6738Z" fill="white"/>
<path d="M27.3331 22H0.666912C0.298227 22 0 21.6987 0 21.3263C0 20.9544 0.298227 20.6532 0.666912 20.6532H27.3331C27.7018 20.6532 28 20.9544 28 21.3263C28 21.6987 27.7018 22 27.3331 22Z" fill="white"/>
</svg>
