<svg width="27" height="40" viewBox="0 0 27 40" fill="none" xmlns="http://www.w3.org/2000/svg">
<path d="M13.5 1.33341C10.1008 1.33341 7.33571 4.17787 7.33571 7.67406V17.2011C7.33571 20.6973 10.1008 23.5418 13.5 23.5418C16.8986 23.5418 19.6637 20.6973 19.6637 17.2011V7.67406C19.6637 4.17787 16.8986 1.33341 13.5 1.33341ZM13.5 24.875C9.38633 24.875 6.03967 21.4323 6.03967 17.2011V7.67406C6.03967 3.44291 9.38633 0.000172744 13.5 0.000172744C17.613 0.000172744 20.9597 3.44291 20.9597 7.67406V17.2011C20.9597 21.4323 17.613 24.875 13.5 24.875Z" fill="white"/>
<path d="M13.5 31.9741C6.05622 31.9741 0 25.7149 0 18.0215C0 17.6529 0.28991 17.3546 0.648311 17.3546C1.00612 17.3546 1.29603 17.6529 1.29603 18.0215C1.29603 24.9799 6.77067 30.6409 13.5 30.6409C20.2293 30.6409 25.704 24.9799 25.704 18.0215C25.704 17.6529 25.9933 17.3546 26.3517 17.3546C26.7101 17.3546 27 17.6529 27 18.0215C27 25.7149 20.9438 31.9741 13.5 31.9741Z" fill="white"/>
<path d="M13.5001 40C13.1417 40 12.8518 39.7018 12.8518 39.3331V31.3075C12.8518 30.9388 13.1417 30.6406 13.5001 30.6406C13.8585 30.6406 14.1484 30.9388 14.1484 31.3075V39.3331C14.1484 39.7018 13.8585 40 13.5001 40Z" fill="white"/>
</svg>
