<svg width="40" height="40" viewBox="0 0 40 40" fill="none" xmlns="http://www.w3.org/2000/svg">
<path d="M14.9516 1.60708C11.894 2.49499 9.11882 4.12927 6.87328 6.37326C3.30059 9.94636 1.33323 14.6966 1.33323 19.7483C1.33323 24.7995 3.30059 29.5497 6.87328 33.1228C14.255 40.5025 26.2626 40.5013 33.6406 33.1228C35.8825 30.8807 37.5152 28.1097 38.4026 25.0581C31.867 26.5189 24.9907 24.5519 20.2257 19.7876C15.4606 15.0226 13.4927 8.14847 14.9516 1.60708ZM20.2572 40C15.0701 40 9.88414 38.0256 5.93486 34.0775C2.10705 30.2507 0 25.1616 0 19.7483C0 14.3345 2.10705 9.24596 5.93486 5.41855C8.61772 2.73704 12.0046 0.868683 15.7297 0.0169237C15.9611 -0.0363879 16.2004 0.0383717 16.362 0.211175C16.523 0.383978 16.5825 0.630314 16.5175 0.858879C14.6917 7.25382 16.4726 14.1402 21.1647 18.8322C25.8586 23.5261 32.7495 25.305 39.1515 23.4808C39.3786 23.4164 39.6222 23.4777 39.7929 23.6401C39.9636 23.8043 40.0358 24.047 39.983 24.2786C39.1314 28.0055 37.2631 31.3942 34.579 34.0775C30.6309 38.0256 25.4438 40 20.2572 40" fill="white"/>
</svg>
