<svg width="40" height="9" viewBox="0 0 40 9" fill="none" xmlns="http://www.w3.org/2000/svg">
<path d="M4.53783 1.3286C2.77093 1.3286 1.33323 2.75163 1.33323 4.4997C1.33323 6.24837 2.77093 7.67079 4.53783 7.67079C6.30474 7.67079 7.74244 6.24837 7.74244 4.4997C7.74244 2.75163 6.30474 1.3286 4.53783 1.3286ZM4.53783 9C2.03537 9 0 6.98137 0 4.4997C0 2.01802 2.03537 -7.97128e-07 4.53783 -7.97128e-07C7.04029 -7.97128e-07 9.07567 2.01802 9.07567 4.4997C9.07567 6.98137 7.04029 9 4.53783 9Z" fill="white"/>
<path d="M20 1.3286C18.2331 1.3286 16.7954 2.75163 16.7954 4.4997C16.7954 6.24837 18.2331 7.67079 20 7.67079C21.7669 7.67079 23.2046 6.24837 23.2046 4.4997C23.2046 2.75163 21.7669 1.3286 20 1.3286ZM20 9C17.4975 9 15.4622 6.98137 15.4622 4.4997C15.4622 2.01802 17.4975 -7.97128e-07 20 -7.97128e-07C22.5025 -7.97128e-07 24.5378 2.01802 24.5378 4.4997C24.5378 6.98137 22.5025 9 20 9Z" fill="white"/>
<path d="M35.4621 1.3286C33.6952 1.3286 32.2575 2.75163 32.2575 4.4997C32.2575 6.24837 33.6952 7.67079 35.4621 7.67079C37.2291 7.67079 38.6668 6.24837 38.6668 4.4997C38.6668 2.75163 37.2291 1.3286 35.4621 1.3286ZM35.4621 9C32.9597 9 30.9243 6.98137 30.9243 4.4997C30.9243 2.01802 32.9597 -7.97128e-07 35.4621 -7.97128e-07C37.9646 -7.97128e-07 40 2.01802 40 4.4997C40 6.98137 37.9646 9 35.4621 9Z" fill="white"/>
</svg>
