<svg width="34" height="40" viewBox="0 0 34 40" fill="none" xmlns="http://www.w3.org/2000/svg">
<path d="M21.1263 12.7854H31.7043L21.1263 2.27931V12.7854ZM33.3269 14.1187H20.453C20.0814 14.1187 19.7803 13.8204 19.7803 13.4523V0.666676C19.7803 0.3976 19.9446 0.154034 20.1954 0.0507773C20.4505 -0.0518724 20.7387 0.00400778 20.9307 0.196552L33.804 12.9816C33.9959 13.1723 34.0524 13.4584 33.9487 13.7074C33.8445 13.9565 33.5986 14.1187 33.3269 14.1187" fill="white"/>
<path d="M1.34602 38.6668H32.654V13.7271L20.1743 1.33384H1.34602V38.6668ZM33.3267 40H0.672703C0.301091 40 0 39.7018 0 39.3337V0.666916C0 0.298227 0.301091 -3.24836e-06 0.672703 -3.24836e-06H20.4534C20.6318 -3.24836e-06 20.8029 0.0704534 20.9304 0.196184L33.8038 12.9812C33.9289 13.1064 34 13.2758 34 13.452V39.3337C34 39.7018 33.6989 40 33.3267 40" fill="white"/>
</svg>
