<svg width="40" height="40" viewBox="0 0 40 40" fill="none" xmlns="http://www.w3.org/2000/svg">
<path d="M24.7564 15.2456H37.7279L24.7564 2.27228V15.2456ZM39.3333 16.5737H24.0895C23.7214 16.5737 23.4232 16.2766 23.4232 15.91V0.664007C23.4232 0.395356 23.5859 0.153328 23.8356 0.0510716C24.0834 -0.0517904 24.3725 0.00508642 24.5626 0.195684L39.8058 15.441C39.9959 15.6316 40.0518 15.9166 39.9492 16.1647C39.8447 16.4122 39.6029 16.5737 39.3333 16.5737" fill="white"/>
<path d="M1.33323 38.6719H38.6662V16.1838L23.8123 1.32874H1.33323V38.6719ZM39.3331 40H0.666312C0.298231 40 0 39.7029 0 39.3362V0.664367C0 0.29709 0.298231 2.18595e-07 0.666312 2.18595e-07H24.0899C24.2666 2.18595e-07 24.4373 0.0701872 24.5624 0.195437L39.8056 15.4408C39.9295 15.5654 40 15.7343 40 15.9097V39.3362C40 39.7029 39.7018 40 39.3331 40" fill="white"/>
</svg>
