<svg width="40" height="36" viewBox="0 0 40 36" fill="none" xmlns="http://www.w3.org/2000/svg">
<path d="M1.33323 34.6794H38.6668V7.07004H31.1976C30.9334 7.07004 30.6953 6.91542 30.5884 6.67656L28.1989 1.32063H11.8005L9.41159 6.67656C9.30468 6.91542 9.06659 7.07004 8.80176 7.07004H1.33323V34.6794ZM39.3331 36H0.666312C0.298231 36 0 35.7046 0 35.34V6.40943C0 6.04422 0.298231 5.74941 0.666312 5.74941H8.36687L10.7564 0.393483C10.8633 0.154025 11.1014 1.77392e-06 11.3656 1.77392e-06H28.6338C28.898 1.77392e-06 29.1367 0.154025 29.2436 0.393483L31.6325 5.74941H39.3331C39.7018 5.74941 40 6.04422 40 6.40943V35.34C40 35.7046 39.7018 36 39.3331 36" fill="white"/>
<path d="M19.9998 10.5478C14.9493 10.5478 10.8396 14.612 10.8396 19.607C10.8396 24.6025 14.9493 28.6667 19.9998 28.6667C25.0503 28.6667 29.1599 24.6025 29.1599 19.607C29.1599 14.612 25.0503 10.5478 19.9998 10.5478ZM19.9998 29.9873C14.2131 29.9873 9.50641 25.3305 9.50641 19.607C9.50641 13.884 14.2131 9.22721 19.9998 9.22721C25.7864 9.22721 30.4931 13.884 30.4931 19.607C30.4931 25.3305 25.7864 29.9873 19.9998 29.9873Z" fill="white"/>
</svg>
