<svg width="40" height="40" viewBox="0 0 40 40" fill="none" xmlns="http://www.w3.org/2000/svg">
<path d="M1.33635 38.6668H38.6637V1.33383H1.33635V38.6668ZM39.3322 40H0.667838C0.298888 40 0 39.7018 0 39.3331V0.666932C0 0.298244 0.298888 -1.12198e-06 0.667838 -1.12198e-06H39.3322C39.7011 -1.12198e-06 40 0.298244 40 0.666932V39.3331C40 39.7018 39.7011 40 39.3322 40Z" fill="white"/>
<path d="M28.2185 33.1763C28.0474 33.1763 27.8763 33.1113 27.7461 32.9801L15.1932 20.427L5.12016 30.4995C4.85898 30.7607 4.43584 30.7594 4.17526 30.5007C3.91407 30.2401 3.91407 29.818 4.17526 29.558L14.7208 19.0124C14.8462 18.8867 15.0155 18.8162 15.1932 18.8162C15.3704 18.8162 15.5403 18.8867 15.6657 19.0124L28.691 32.0392C28.9521 32.2992 28.9521 32.7219 28.691 32.9819C28.5607 33.1113 28.3896 33.1763 28.2185 33.1763Z" fill="white"/>
<path d="M18.2942 23.2515C18.1231 23.2515 17.952 23.1865 17.8217 23.0571C17.5606 22.7971 17.5606 22.3744 17.8217 22.1144L26.9201 13.0156C27.1703 12.7648 27.6141 12.7648 27.865 13.0156L35.8248 20.9768C36.086 21.2373 36.086 21.6595 35.8248 21.9194C35.5642 22.1788 35.1411 22.18 34.8799 21.9182L27.3925 14.4303L18.7666 23.0553C18.6364 23.1865 18.4653 23.2515 18.2942 23.2515Z" fill="white"/>
<path d="M9.71274 7.94986C8.85551 7.94986 8.1584 8.64837 8.1584 9.50662C8.1584 10.3643 8.85551 11.0628 9.71274 11.0628C10.57 11.0628 11.2683 10.3643 11.2683 9.50662C11.2683 8.64837 10.57 7.94986 9.71274 7.94986ZM9.71274 12.396C8.11944 12.396 6.82202 11.0998 6.82202 9.50662C6.82202 7.91281 8.11944 6.61663 9.71274 6.61663C11.3079 6.61663 12.6047 7.91281 12.6047 9.50662C12.6047 11.0998 11.3079 12.396 9.71274 12.396Z" fill="white"/>
</svg>
