<svg width="30" height="39" viewBox="0 0 30 39" fill="none" xmlns="http://www.w3.org/2000/svg">
<path d="M15 1.2999C7.461 1.2999 1.32735 7.33156 1.32735 14.7454C1.32735 21.39 12.4892 34.4951 15 37.3584C17.5108 34.4951 28.6726 21.39 28.6726 14.7454C28.6726 7.33156 22.539 1.2999 15 1.2999ZM15 39C14.8101 39 14.6293 38.9206 14.5035 38.7815C13.9109 38.1277 0 22.6852 0 14.7454C0 6.61499 6.72868 -2.97089e-06 15 -2.97089e-06C23.2713 -2.97089e-06 30 6.61499 30 14.7454C30 22.6852 16.0891 38.1277 15.4965 38.7815C15.3707 38.9206 15.1899 39 15 39Z" fill="white"/>
<path d="M15 11.1317C12.837 11.1317 11.0772 12.8628 11.0772 14.9912C11.0772 17.119 12.837 18.85 15 18.85C17.1631 18.85 18.9222 17.119 18.9222 14.9912C18.9222 12.8628 17.1631 11.1317 15 11.1317ZM15 20.1499C12.1052 20.1499 9.74988 17.8355 9.74988 14.9912C9.74988 12.1462 12.1052 9.83183 15 9.83183C17.8948 9.83183 20.2496 12.1462 20.2496 14.9912C20.2496 17.8355 17.8948 20.1499 15 20.1499Z" fill="white"/>
</svg>
