<svg width="40" height="40" viewBox="0 0 40 40" fill="none" xmlns="http://www.w3.org/2000/svg">
<path d="M10.8701 7.2942H29.1294V1.33324H10.8701V7.2942ZM29.8003 8.62744H10.1993C9.82811 8.62744 9.52783 8.32983 9.52783 7.96114V0.666939C9.52783 0.298249 9.82811 4.37158e-06 10.1993 4.37158e-06H29.8003C30.1715 4.37158e-06 30.4718 0.298249 30.4718 0.666939V7.96114C30.4718 8.32983 30.1715 8.62744 29.8003 8.62744Z" fill="white"/>
<path d="M30.4716 30.0452H38.6571V8.6278H1.34232V30.0452H9.52774V22.0895C9.52774 21.7208 9.828 21.4226 10.1992 21.4226H29.8002C30.1714 21.4226 30.4716 21.7208 30.4716 22.0895V30.0452ZM39.3285 31.3784H29.8002C29.4296 31.3784 29.1293 31.0802 29.1293 30.7121V22.7564H10.8701V30.7121C10.8701 31.0802 10.5698 31.3784 10.1992 31.3784H0.670856C0.299653 31.3784 0 31.0802 0 30.7121V7.96149C0 7.5928 0.299653 7.29457 0.670856 7.29457H39.3285C39.6997 7.29457 40 7.5928 40 7.96149V30.7121C40 31.0802 39.6997 31.3784 39.3285 31.3784" fill="white"/>
<path d="M29.8004 40H10.1988C9.82822 40 9.52795 39.7018 9.52795 39.3331V30.7117C9.52795 30.343 9.82822 30.0448 10.1988 30.0448C10.57 30.0448 10.8703 30.343 10.8703 30.7117V38.6668H29.1289V30.7117C29.1289 30.343 29.4292 30.0448 29.8004 30.0448C30.1716 30.0448 30.4719 30.343 30.4719 30.7117V39.3331C30.4719 39.7018 30.1716 40 29.8004 40Z" fill="white"/>
<path d="M29.8004 31.3784C29.4292 31.3784 29.1289 31.0802 29.1289 30.7115V22.7558H10.8703V30.7115C10.8703 31.0802 10.57 31.3784 10.1988 31.3784C9.82822 31.3784 9.52795 31.0802 9.52795 30.7115V22.0895C9.52795 21.7208 9.82822 21.4226 10.1988 21.4226H29.8004C30.1716 21.4226 30.4719 21.7208 30.4719 22.0895V30.7115C30.4719 31.0802 30.1716 31.3784 29.8004 31.3784Z" fill="white"/>
<path d="M33.0674 14.2139H24.2882C23.917 14.2139 23.6167 13.9156 23.6167 13.5469C23.6167 13.1789 23.917 12.8806 24.2882 12.8806H33.0674C33.4386 12.8806 33.7389 13.1789 33.7389 13.5469C33.7389 13.9156 33.4386 14.2139 33.0674 14.2139Z" fill="white"/>
</svg>
