<svg width="40" height="33" viewBox="0 0 40 33" fill="none" xmlns="http://www.w3.org/2000/svg">
<path d="M20.1498 33C11.3493 33 4.18988 25.6862 4.18988 16.6977C4.18988 16.3194 4.48811 16.0134 4.8568 16.0134C5.22549 16.0134 5.52372 16.3194 5.52372 16.6977C5.52372 24.932 12.0848 31.632 20.1498 31.632C26.556 31.632 32.3178 27.2617 34.16 21.0043C34.2669 20.6422 34.6405 20.4366 34.9909 20.5475C35.3438 20.6559 35.5431 21.038 35.4362 21.3995C33.4257 28.2297 27.1391 33 20.1498 33Z" fill="white"/>
<path d="M9.04702 21.2705C8.87634 21.2705 8.70688 21.2044 8.57689 21.0717L4.8572 17.2724L1.1369 21.0717C0.876322 21.3372 0.454789 21.3372 0.194216 21.0686C-0.0651421 20.8018 -0.0651423 20.368 0.196646 20.1013L4.38707 15.8221C4.64704 15.5559 5.06675 15.5559 5.32671 15.8221L9.51714 20.1013C9.77893 20.368 9.77893 20.8018 9.51957 21.0686C9.38959 21.2032 9.2177 21.2705 9.04702 21.2705Z" fill="white"/>
<path d="M35.1433 16.9868C34.7746 16.9868 34.4763 16.6808 34.4763 16.3025C34.4763 8.06813 27.9153 1.3682 19.8502 1.3682C13.444 1.3682 7.68228 5.73842 5.84004 11.9952C5.73314 12.3573 5.36202 12.5624 5.00912 12.4521C4.65623 12.3436 4.457 11.9609 4.5639 11.6001C6.57438 4.76989 12.8609 0.000172086 19.8502 0.000172086C28.6508 0.000172086 35.8102 7.31337 35.8102 16.3025C35.8102 16.6808 35.512 16.9868 35.1433 16.9868Z" fill="white"/>
<path d="M35.1433 17.376C34.9727 17.376 34.8032 17.3099 34.6732 17.1772L30.4834 12.8979C30.2216 12.6318 30.2216 12.1986 30.4804 11.9307C30.7409 11.662 31.1631 11.662 31.423 11.9282L35.1433 15.7269L38.8636 11.9282C39.1236 11.662 39.5458 11.662 39.8063 11.9307C40.0651 12.1986 40.0651 12.6318 39.8033 12.8979L35.6135 17.1772C35.4829 17.3099 35.314 17.376 35.1433 17.376Z" fill="white"/>
</svg>
