<svg width="38" height="30" viewBox="0 0 38 30" fill="none" xmlns="http://www.w3.org/2000/svg">
<path d="M37.3267 1.33936H0.673326C0.301096 1.33936 0 1.03972 0 0.669294C0 0.299478 0.301096 -0.000158016 0.673326 -0.000158016H37.3267C37.6989 -0.000158016 38 0.299478 38 0.669294C38 1.03972 37.6989 1.33936 37.3267 1.33936Z" fill="white"/>
<path d="M37.3267 20.4458H0.673326C0.301096 20.4458 0 20.1462 0 19.7757C0 19.4059 0.301096 19.1063 0.673326 19.1063H37.3267C37.6989 19.1063 38 19.4059 38 19.7757C38 20.1462 37.6989 20.4458 37.3267 20.4458Z" fill="white"/>
<path d="M37.3267 10.8926H12.3603C11.988 10.8926 11.687 10.5929 11.687 10.2225C11.687 9.8527 11.988 9.55306 12.3603 9.55306H37.3267C37.6989 9.55306 38 9.8527 38 10.2225C38 10.5929 37.6989 10.8926 37.3267 10.8926Z" fill="white"/>
<path d="M37.3267 30H12.3603C11.988 30 11.687 29.7004 11.687 29.3299C11.687 28.9601 11.988 28.6605 12.3603 28.6605H37.3267C37.6989 28.6605 38 28.9601 38 29.3299C38 29.7004 37.6989 30 37.3267 30Z" fill="white"/>
</svg>
