<svg width="40" height="40" viewBox="0 0 40 40" fill="none" xmlns="http://www.w3.org/2000/svg">
<path d="M27.9201 30.0601C27.5514 30.0601 27.2532 29.7633 27.2532 29.3965C27.2532 29.0302 27.5514 28.7335 27.9201 28.7335C33.8459 28.7335 38.6668 23.9452 38.6668 18.0594C38.6668 12.173 33.8459 7.38475 27.9201 7.38475C27.6116 7.38475 27.3091 7.4059 27.0066 7.43068C26.7709 7.45425 26.5426 7.34366 26.4065 7.15268C23.8184 3.5042 19.6031 1.32672 15.1296 1.32672C7.52259 1.32672 1.33384 7.4742 1.33384 15.0298C1.33384 22.586 7.52259 28.7335 15.1296 28.7335C15.4983 28.7335 15.7965 29.0302 15.7965 29.3965C15.7965 29.7633 15.4983 30.0601 15.1296 30.0601C6.78764 30.0601 0 23.3173 0 15.0298C0 6.74172 6.78764 0.000168873 15.1296 0.000168873C19.9092 0.000168873 24.4197 2.26588 27.272 6.08056C27.4864 6.06726 27.7021 6.0582 27.9201 6.0582C34.5808 6.0582 40 11.4418 40 18.0594C40 24.6765 34.5808 30.0601 27.9201 30.0601Z" fill="white"/>
<path d="M29.9318 25.5894C29.7611 25.5894 29.5905 25.5247 29.4605 25.3948L21.605 17.5787L14.1523 24.9941C13.8923 25.2533 13.4702 25.2533 13.2096 24.9941C12.9497 24.7348 12.9497 24.3154 13.2096 24.0561L21.1337 16.1717C21.3943 15.9131 21.8158 15.9131 22.0764 16.1717L30.4032 24.4568C30.6637 24.7161 30.6637 25.1361 30.4032 25.3948C30.2732 25.5247 30.1025 25.5894 29.9318 25.5894Z" fill="white"/>
<path d="M21.605 40C21.2363 40 20.9381 39.7033 20.9381 39.3364V16.6412C20.9381 16.2743 21.2363 15.9776 21.605 15.9776C21.9737 15.9776 22.272 16.2743 22.272 16.6412V39.3364C22.272 39.7033 21.9737 40 21.605 40Z" fill="white"/>
</svg>
