<svg width="40" height="40" viewBox="0 0 40 40" fill="none" xmlns="http://www.w3.org/2000/svg">
<path d="M17.4037 1.33264C13.2753 1.33264 9.16023 2.89472 6.03156 6.02436C2.98307 9.0738 1.31457 13.1385 1.3334 17.4705C1.35162 21.8044 3.05778 25.8855 6.13482 28.9641C12.4845 35.3164 22.7749 35.3638 29.0699 29.0674C32.1184 26.0186 33.7869 21.9533 33.768 17.6218C33.7492 13.288 32.0443 9.20626 28.9666 6.12765C25.7723 2.933 21.5807 1.33264 17.4037 1.33264ZM17.6971 35.0928C13.1787 35.0928 8.64637 33.3624 5.19215 29.9071C1.86426 26.5788 0.0202189 22.1635 0.000175071 17.476C-0.0204762 12.7861 1.78651 8.3842 5.08889 5.0814C11.9032 -1.73381 23.0391 -1.68825 29.9093 5.18469C33.2378 8.51301 35.0812 12.9283 35.1012 17.6164C35.1219 22.3063 33.3143 26.7082 30.0125 30.0104C26.6239 33.4001 22.1669 35.0928 17.6971 35.0928Z" fill="white"/>
<path d="M39.3333 40C39.1626 40 38.9919 39.935 38.8619 39.8044L29.0696 30.0108C28.809 29.7501 28.809 29.3285 29.0696 29.0678C29.3301 28.8072 29.7517 28.8072 30.0122 29.0678L39.8046 38.8614C40.0652 39.122 40.0652 39.5443 39.8046 39.8044C39.6746 39.935 39.5039 40 39.3333 40Z" fill="white"/>
</svg>
