<svg width="40" height="33" viewBox="0 0 40 33" fill="none" xmlns="http://www.w3.org/2000/svg">
<path d="M16.1335 23.0754C16.3211 23.0754 16.4997 23.155 16.6267 23.2953L23.701 31.145L38.1334 1.60691L2.02424 9.0657L10.3547 17.3528C10.4816 17.479 10.5533 17.6511 10.5533 17.8312V30.2762L15.5965 23.3498C15.7144 23.1869 15.899 23.0864 16.0988 23.076C16.1098 23.0754 16.1219 23.0754 16.1335 23.0754ZM9.88699 33C9.81775 33 9.74729 32.989 9.67926 32.9663C9.40472 32.8756 9.22007 32.6183 9.22007 32.3273V18.1124L0.198402 9.13861C0.0234718 8.96462 -0.0421269 8.7067 0.0271164 8.469C0.0975744 8.23069 0.291942 8.05119 0.533078 8.00095L39.2 0.0134556C39.4472 -0.0373928 39.7059 0.0581773 39.8614 0.260958C40.0163 0.464965 40.0436 0.739425 39.9319 0.969774L24.4651 32.6251C24.3673 32.8248 24.1778 32.9626 23.9598 32.9933C23.735 33.0239 23.5206 32.9436 23.373 32.7801L16.1881 24.8085L10.4239 32.7255C10.2964 32.9014 10.0953 33 9.88699 33Z" fill="white"/>
<path d="M9.8875 18.5039C9.65061 18.5039 9.42162 18.3765 9.30014 18.151C9.12521 17.8251 9.24548 17.4165 9.56983 17.24L23.4082 9.69181C23.7331 9.51721 24.1364 9.63667 24.312 9.96321C24.4869 10.2897 24.3666 10.6984 24.0423 10.8748L10.204 18.423C10.1031 18.4776 9.9944 18.5039 9.8875 18.5039Z" fill="white"/>
</svg>
