<svg width="40" height="40" viewBox="0 0 40 40" fill="none" xmlns="http://www.w3.org/2000/svg">
<path d="M1.33544 38.6662H38.664V1.33324H1.33544V38.6662ZM39.332 40H0.668018C0.29873 40 0 39.7018 0 39.3331V0.666302C0 0.298221 0.29873 -1.12198e-06 0.668018 -1.12198e-06H39.332C39.7013 -1.12198e-06 40 0.298221 40 0.666302V39.3331C40 39.7018 39.7013 40 39.332 40Z" fill="white"/>
<path d="M30.1663 34.4868C29.797 34.4868 29.4983 34.1886 29.4983 33.8199V6.17916C29.4983 5.81047 29.797 5.51224 30.1663 5.51224C30.5356 5.51224 30.8343 5.81047 30.8343 6.17916V33.8199C30.8343 34.1886 30.5356 34.4868 30.1663 34.4868Z" fill="white"/>
<path d="M33.3343 16.7959H26.9986C26.6293 16.7959 26.3306 16.4977 26.3306 16.129C26.3306 15.7609 26.6293 15.4627 26.9986 15.4627H33.3343C33.7036 15.4627 34.0023 15.7609 34.0023 16.129C34.0023 16.4977 33.7036 16.7959 33.3343 16.7959Z" fill="white"/>
<path d="M9.83384 34.4868C9.46455 34.4868 9.16583 34.1886 9.16583 33.8199V6.17916C9.16583 5.81047 9.46455 5.51224 9.83384 5.51224C10.2031 5.51224 10.5018 5.81047 10.5018 6.17916V33.8199C10.5018 34.1886 10.2031 34.4868 9.83384 34.4868Z" fill="white"/>
<path d="M13.0018 12.3521H6.66605C6.29676 12.3521 5.99805 12.0538 5.99805 11.6851C5.99805 11.317 6.29676 11.0188 6.66605 11.0188H13.0018C13.371 11.0188 13.6698 11.317 13.6698 11.6851C13.6698 12.0538 13.371 12.3521 13.0018 12.3521Z" fill="white"/>
<path d="M20 34.4868C19.6307 34.4868 19.332 34.1886 19.332 33.8199V6.17916C19.332 5.81047 19.6307 5.51224 20 5.51224C20.3693 5.51224 20.668 5.81047 20.668 6.17916V33.8199C20.668 34.1886 20.3693 34.4868 20 34.4868Z" fill="white"/>
<path d="M23.168 28.9805H16.8323C16.463 28.9805 16.1642 28.6822 16.1642 28.3135C16.1642 27.9455 16.463 27.6472 16.8323 27.6472H23.168C23.5372 27.6472 23.836 27.9455 23.836 28.3135C23.836 28.6822 23.5372 28.9805 23.168 28.9805Z" fill="white"/>
</svg>
