<svg width="39" height="40" viewBox="0 0 39 40" fill="none" xmlns="http://www.w3.org/2000/svg">
<path d="M33.8593 40C33.4914 40 33.1938 39.7018 33.1938 39.3331V0.666916C33.1938 0.298227 33.4914 -3.24836e-06 33.8593 -3.24836e-06C34.2273 -3.24836e-06 34.5249 0.298227 34.5249 0.666916V39.3331C34.5249 39.7018 34.2273 40 33.8593 40Z" fill="white"/>
<path d="M38.3345 15.2529H29.3854C29.0181 15.2529 28.7205 14.9547 28.7205 14.586C28.7205 14.2179 29.0181 13.9197 29.3854 13.9197H38.3345C38.7024 13.9197 39 14.2179 39 14.586C39 14.9547 38.7024 15.2529 38.3345 15.2529Z" fill="white"/>
<path d="M5.14015 40C4.77222 40 4.47461 39.7018 4.47461 39.3331V0.666916C4.47461 0.298227 4.77222 -3.24836e-06 5.14015 -3.24836e-06C5.50808 -3.24836e-06 5.8057 0.298227 5.8057 0.666916V39.3331C5.8057 39.7018 5.50808 40 5.14015 40Z" fill="white"/>
<path d="M9.61402 9.03613H0.664938C0.297616 9.03613 0 8.7379 0 8.36921C0 8.00113 0.297616 7.7029 0.664938 7.7029H9.61402C9.98194 7.7029 10.2796 8.00113 10.2796 8.36921C10.2796 8.7379 9.98194 9.03613 9.61402 9.03613Z" fill="white"/>
<path d="M19.4998 40C19.1318 40 18.8342 39.7018 18.8342 39.3331V0.666916C18.8342 0.298227 19.1318 -3.24836e-06 19.4998 -3.24836e-06C19.8677 -3.24836e-06 20.1653 0.298227 20.1653 0.666916V39.3331C20.1653 39.7018 19.8677 40 19.4998 40Z" fill="white"/>
<path d="M23.9748 32.2969H15.0246C14.6566 32.2969 14.359 31.9986 14.359 31.63C14.359 31.2619 14.6566 30.9636 15.0246 30.9636H23.9748C24.3428 30.9636 24.6404 31.2619 24.6404 31.63C24.6404 31.9986 24.3428 32.2969 23.9748 32.2969Z" fill="white"/>
</svg>
