<svg width="38" height="40" viewBox="0 0 38 40" fill="none" xmlns="http://www.w3.org/2000/svg">
<path d="M1.34385 26.4933H11.022C11.1702 26.4933 11.3147 26.5419 11.4322 26.6318L26.2813 37.9786V2.02125L11.4322 13.3674C11.3147 13.4573 11.1702 13.5065 11.022 13.5065H1.34385V26.4933ZM26.9529 40C26.8072 40 26.6627 39.9532 26.5427 39.8609L10.7931 27.8265H0.671619C0.300606 27.8265 0 27.5283 0 27.1602V12.8396C0 12.4709 0.300606 12.1727 0.671619 12.1727H10.7931L26.5427 0.138313C26.746 -0.016573 27.0215 -0.0432969 27.2499 0.0678569C27.4795 0.180225 27.6252 0.412252 27.6252 0.666144V39.3331C27.6252 39.587 27.4795 39.8196 27.2499 39.9314C27.1556 39.9769 27.054 40 26.9529 40" fill="white"/>
<path d="M29.692 28.2378C29.3204 28.2378 29.0198 27.9396 29.0198 27.5709C29.0198 27.2028 29.3204 26.9046 29.692 26.9046C33.5313 26.9046 36.6562 23.8068 36.6562 19.9997C36.6562 16.1913 33.5313 13.0942 29.692 13.0942C29.3204 13.0942 29.0198 12.7959 29.0198 12.4272C29.0198 12.0585 29.3204 11.7603 29.692 11.7603C34.2733 11.7603 38 15.4563 38 19.9997C38 24.5418 34.2733 28.2378 29.692 28.2378Z" fill="white"/>
</svg>
