<svg width="40" height="38" viewBox="0 0 40 38" fill="none" xmlns="http://www.w3.org/2000/svg">
<path d="M2.11281 15.1449L10.7959 23.5808C10.9557 23.736 11.0286 23.9605 10.9909 24.1819L8.93855 36.1033L19.6928 30.4689C19.886 30.3659 20.115 30.3659 20.3075 30.4689L31.0612 36.1033L29.0101 24.1819C28.9724 23.9605 29.0453 23.736 29.2044 23.5808L37.8875 15.1449L25.8796 13.4052C25.6628 13.3733 25.4757 13.2365 25.3779 13.0396L20.0002 2.17889L14.6224 13.0396C14.5246 13.2365 14.337 13.3733 14.1201 13.4052L2.11281 15.1449ZM31.9486 38C31.8441 38 31.7384 37.9748 31.6412 37.9233L20.0002 31.8246L8.35851 37.9233C8.13256 38.0429 7.86167 38.0209 7.65759 37.8693C7.4529 37.7184 7.35086 37.4632 7.39459 37.2105L9.61639 24.3028L0.204421 15.1596C0.0209921 14.9805 -0.0458199 14.7124 0.0319248 14.4677C0.110277 14.2229 0.319823 14.0444 0.572494 14.0076L13.5856 12.1219L19.4043 0.372348C19.5173 0.144767 19.7475 -1.16753e-06 20.0002 -1.16753e-06C20.2528 -1.16753e-06 20.4836 0.144767 20.5966 0.372348L26.4141 12.1219L39.4279 14.0076C39.6799 14.0444 39.8901 14.2229 39.9678 14.4677C40.0462 14.7124 39.9787 14.9805 39.7953 15.1596L30.384 24.3028L32.6057 37.2105C32.6489 37.4632 32.5468 37.7184 32.3428 37.8693C32.2261 37.9564 32.0877 38 31.9486 38" fill="white"/>
</svg>
