<svg width="40" height="40" viewBox="0 0 40 40" fill="none" xmlns="http://www.w3.org/2000/svg">
<path d="M20 1.33323C9.70969 1.33323 1.33792 9.70678 1.33792 19.9997C1.33792 30.2926 9.70969 38.6662 20 38.6662C30.2903 38.6662 38.6621 30.2926 38.6621 19.9997C38.6621 9.70678 30.2903 1.33323 20 1.33323ZM20 40C8.97188 40 0 31.0282 0 19.9997C0 8.97122 8.97188 -3.24836e-06 20 -3.24836e-06C31.0281 -3.24836e-06 40 8.97122 40 19.9997C40 31.0282 31.0281 40 20 40Z" fill="white"/>
<path d="M31.1812 20.6665H8.81856C8.44935 20.6665 8.15021 20.3683 8.15021 19.9996C8.15021 19.6315 8.44935 19.3333 8.81856 19.3333H31.1812C31.5511 19.3333 31.8502 19.6315 31.8502 19.9996C31.8502 20.3683 31.5511 20.6665 31.1812 20.6665Z" fill="white"/>
</svg>
