<svg width="40" height="40" viewBox="0 0 40 40" fill="none" xmlns="http://www.w3.org/2000/svg">
<path d="M19.9998 9.78119C14.3657 9.78119 9.782 14.3652 9.782 20.0001C9.782 25.6349 14.3657 30.219 19.9998 30.219C25.6339 30.219 30.2176 25.6349 30.2176 20.0001C30.2176 14.3652 25.6339 9.78119 19.9998 9.78119ZM19.9998 31.5522C13.6295 31.5522 8.44763 26.3699 8.44763 20.0001C8.44763 13.6303 13.6295 8.44794 19.9998 8.44794C26.3695 8.44794 31.5519 13.6303 31.5519 20.0001C31.5519 26.3699 26.3695 31.5522 19.9998 31.5522Z" fill="white"/>
<path d="M33.6702 34.3374C33.4994 34.3374 33.3286 34.2724 33.1985 34.1418L30.2118 31.1552C29.951 30.8947 29.951 30.4719 30.2118 30.2125C30.472 29.952 30.8945 29.952 31.1553 30.2125L34.142 33.1991C34.4028 33.4597 34.4028 33.8825 34.142 34.1418C34.0119 34.2724 33.8411 34.3374 33.6702 34.3374Z" fill="white"/>
<path d="M9.31624 9.98291C9.14541 9.98291 8.97459 9.91792 8.8445 9.78733L5.85783 6.80074C5.59703 6.54016 5.59703 6.11741 5.85783 5.85805C6.11801 5.59748 6.54051 5.59748 6.80131 5.85805L9.78798 8.84464C10.0488 9.10522 10.0488 9.52797 9.78798 9.78733C9.65788 9.91792 9.48706 9.98291 9.31624 9.98291Z" fill="white"/>
<path d="M39.3325 20.6665H35.1082C34.7392 20.6665 34.4413 20.3683 34.4413 19.9996C34.4413 19.6315 34.7392 19.3333 35.1082 19.3333H39.3325C39.7015 19.3333 40 19.6315 40 19.9996C40 20.3683 39.7015 20.6665 39.3325 20.6665Z" fill="white"/>
<path d="M4.89065 20.6665H0.666879C0.298485 20.6665 0 20.3683 0 19.9996C0 19.6315 0.298485 19.3333 0.666879 19.3333H4.89065C5.25965 19.3333 5.55814 19.6315 5.55814 19.9996C5.55814 20.3683 5.25965 20.6665 4.89065 20.6665Z" fill="white"/>
<path d="M30.6833 9.98291C30.5125 9.98291 30.3417 9.91792 30.2116 9.78733C29.9508 9.52797 29.9508 9.10522 30.2116 8.84464L33.1983 5.85805C33.459 5.59748 33.8815 5.59748 34.1417 5.85805C34.4025 6.11741 34.4025 6.54016 34.1417 6.80074L31.1551 9.78733C31.025 9.91792 30.8541 9.98291 30.6833 9.98291Z" fill="white"/>
<path d="M6.32932 34.3374C6.1585 34.3374 5.98768 34.2724 5.85758 34.1418C5.59679 33.8825 5.59679 33.4597 5.85758 33.1991L8.84425 30.2125C9.10505 29.952 9.52755 29.952 9.78773 30.2125C10.0485 30.4719 10.0485 30.8947 9.78773 31.1552L6.80106 34.1418C6.67097 34.2724 6.50015 34.3374 6.32932 34.3374Z" fill="white"/>
<path d="M19.9998 5.55713C19.6308 5.55713 19.3323 5.2589 19.3323 4.8902V0.666339C19.3323 0.298255 19.6308 2.07502e-05 19.9998 2.07502e-05C20.3688 2.07502e-05 20.6673 0.298255 20.6673 0.666339V4.8902C20.6673 5.2589 20.3688 5.55713 19.9998 5.55713Z" fill="white"/>
<path d="M19.9998 40C19.6308 40 19.3323 39.7018 19.3323 39.3331V35.1092C19.3323 34.7411 19.6308 34.4429 19.9998 34.4429C20.3688 34.4429 20.6673 34.7411 20.6673 35.1092V39.3331C20.6673 39.7018 20.3688 40 19.9998 40Z" fill="white"/>
</svg>
