<svg width="40" height="40" viewBox="0 0 40 40" fill="none" xmlns="http://www.w3.org/2000/svg">
<path d="M16.2356 37.1573C17.2076 38.131 18.5021 38.6667 19.8763 38.6667H19.8775C21.2523 38.6667 22.5449 38.131 23.517 37.1573L37.4668 23.2047C38.3525 22.3203 38.7834 21.049 38.6203 19.8056L36.765 5.72293C36.5947 4.42127 35.568 3.39354 34.2717 3.22286L20.1907 1.36784C18.9489 1.20445 17.6863 1.63389 16.8031 2.51827L2.85326 16.4716C0.840455 18.4839 0.840455 21.7596 2.85326 23.7726L16.2356 37.1573ZM19.8763 40C18.1405 40 16.5077 39.324 15.2788 38.0964L1.89711 24.711C-0.632372 22.18 -0.632372 18.063 1.89711 15.5325L15.8464 1.57922C17.025 0.40146 18.7068 -0.173751 20.3678 0.0461292L34.4476 1.90114C36.3477 2.15079 37.8493 3.65168 38.1 5.54982L39.9552 19.6331C40.171 21.2828 39.5979 22.9684 38.4236 24.1437L24.4737 38.0964C23.2467 39.3234 21.6145 40 19.8775 40H19.8763Z" fill="white"/>
<path d="M28.6309 9.72598C27.7305 9.72598 26.9993 10.4616 26.9993 11.3654C26.9993 12.2692 27.7305 13.0041 28.6309 13.0041C29.5307 13.0041 30.2643 12.2692 30.2643 11.3654C30.2643 10.4616 29.5307 9.72598 28.6309 9.72598ZM28.6309 14.3374C26.9901 14.3374 25.6534 13.0041 25.6534 11.3654C25.6534 9.72598 26.9901 8.39273 28.6309 8.39273C30.2735 8.39273 31.6097 9.72598 31.6097 11.3654C31.6097 13.0041 30.2735 14.3374 28.6309 14.3374Z" fill="white"/>
</svg>
