<svg width="40" height="34" viewBox="0 0 40 34" fill="none" xmlns="http://www.w3.org/2000/svg">
<path d="M1.3332 32.6443H38.6661V9.90971H1.3332V32.6443ZM39.3331 34H0.666934C0.298245 34 0 33.6974 0 33.3225V9.23219C0 8.85729 0.298245 8.55467 0.666934 8.55467H39.3331C39.7018 8.55467 40 8.85729 40 9.23219V33.3225C40 33.6974 39.7018 34 39.3331 34Z" fill="white"/>
<path d="M1.3332 32.6443H38.6661V1.35568H1.3332V32.6443ZM39.3331 34H0.666934C0.298245 34 0 33.6974 0 33.3225V0.678124C0 0.303229 0.298245 7.68225e-07 0.666934 7.68225e-07H39.3331C39.7018 7.68225e-07 40 0.303229 40 0.678124V33.3225C40 33.6974 39.7018 34 39.3331 34Z" fill="white"/>
<path d="M34.5057 5.70068H23.9285C23.5598 5.70068 23.2616 5.39743 23.2616 5.02254C23.2616 4.64826 23.5598 4.34501 23.9285 4.34501H34.5057C34.8744 4.34501 35.1726 4.64826 35.1726 5.02254C35.1726 5.39743 34.8744 5.70068 34.5057 5.70068Z" fill="white"/>
</svg>
