<svg width="20" height="40" viewBox="0 0 20 40" fill="none" xmlns="http://www.w3.org/2000/svg">
<path d="M1.876 22.2986H8.99871C9.20171 22.2986 9.39374 22.3903 9.52115 22.5483C9.64795 22.7056 9.69611 22.9121 9.65222 23.1101L6.8541 35.6863L18.124 17.7012H11.0007C10.7983 17.7012 10.6063 17.6089 10.4789 17.4516C10.3521 17.2943 10.3039 17.0878 10.3478 16.8898L13.1453 4.31361L1.876 22.2986ZM5.35811 40C5.27337 40 5.18742 39.9836 5.10451 39.9502C4.80336 39.8275 4.63389 39.5056 4.7046 39.1885L8.16537 23.6319H0.668971C0.426345 23.6319 0.202008 23.5007 0.0837432 23.2887C-0.033912 23.0767 -0.0272062 22.8173 0.101422 22.6127L14.0737 0.313899C14.2463 0.0375331 14.5907 -0.0724086 14.8955 0.0490708C15.1966 0.172372 15.3655 0.493689 15.2954 0.81075L11.8346 16.3674H19.3304C19.5737 16.3674 19.798 16.4992 19.9163 16.7106C20.0339 16.9232 20.0272 17.1819 19.8986 17.3872L5.92566 39.686C5.80008 39.8864 5.58305 40 5.35811 40Z" fill="white"/>
</svg>
