<svg width="35" height="40" viewBox="0 0 35 40" fill="none" xmlns="http://www.w3.org/2000/svg">
<path d="M1.75736 38.6668H33.2424L17.5002 8.67204L1.75736 38.6668ZM34.3392 40H0.66055C0.428914 40 0.214125 39.8779 0.0949976 39.6775C-0.0253327 39.4764 -0.0313492 39.228 0.0769481 39.0215L16.7529 7.24832L13.4625 0.978836C13.2916 0.654489 13.415 0.250574 13.7375 0.0780753C14.0563 -0.0950308 14.4582 0.0294849 14.6297 0.355046L17.5002 5.82399L20.3707 0.355046C20.5415 0.0294849 20.944 -0.0944234 21.2629 0.0780753C21.5854 0.250574 21.7087 0.654489 21.5379 0.978836L18.2474 7.24832L34.9228 39.0215C35.0317 39.228 35.0251 39.4764 34.9048 39.6775C34.7856 39.8779 34.5708 40 34.3392 40" fill="white"/>
<path d="M12.9017 38.6668H22.0991L17.5001 29.9356L12.9017 38.6668ZM23.1977 40H11.803C11.5714 40 11.356 39.8779 11.2363 39.6763C11.1172 39.4758 11.1105 39.2274 11.22 39.0203L16.9171 28.2027C17.1469 27.7678 17.8539 27.7678 18.0831 28.2027L23.7807 39.0203C23.8896 39.2274 23.8836 39.4758 23.7639 39.6763C23.6448 39.8779 23.4294 40 23.1977 40" fill="white"/>
</svg>
