<svg width="34" height="40" viewBox="0 0 34 40" fill="none" xmlns="http://www.w3.org/2000/svg">
<path d="M2.26086 30.5229H31.739L23.6652 22.3846C23.4762 22.1933 23.42 21.9065 23.522 21.6581C23.6253 21.409 23.8669 21.2462 24.1344 21.2462H29.9213L22.8765 14.1461C22.6875 13.9547 22.6307 13.668 22.7334 13.4195C22.836 13.1704 23.0776 13.0076 23.3457 13.0076H28.3144L17.0002 1.60332L5.68603 13.0076H10.6547C10.9228 13.0076 11.1638 13.1704 11.267 13.4195C11.3691 13.668 11.3129 13.9547 11.1239 14.1461L4.07912 21.2462H9.86604C10.1342 21.2462 10.3757 21.409 10.4784 21.6581C10.581 21.9065 10.5243 22.1933 10.3353 22.3846L2.26086 30.5229ZM33.3374 31.8564H0.663009C0.394889 31.8564 0.15334 31.6936 0.0506812 31.4452C-0.0519773 31.1961 0.00418297 30.9099 0.193195 30.7186L8.26819 22.5803H2.48067C2.21315 22.5803 1.9716 22.4175 1.86834 22.1684C1.76629 21.9199 1.82245 21.6332 2.01146 21.4418L9.05625 14.3411H4.08818C3.82006 14.3411 3.57851 14.1783 3.47585 13.9298C3.3738 13.6814 3.42996 13.3946 3.61897 13.2032L16.531 0.187803C16.7798 -0.0624939 17.2212 -0.0624939 17.4694 0.187803L30.3821 13.2032C30.5711 13.3946 30.6272 13.6814 30.5252 13.9298C30.4219 14.1783 30.1804 14.3411 29.9128 14.3411H24.9436L31.9884 21.4418C32.1774 21.6332 32.2335 21.9199 32.1315 22.1684C32.0288 22.4175 31.7873 22.5803 31.5191 22.5803H25.7328L33.8066 30.7186C33.9956 30.9099 34.0518 31.1961 33.9497 31.4452C33.8465 31.6936 33.6055 31.8564 33.3374 31.8564" fill="white"/>
<path d="M17.0002 40C16.6337 40 16.3372 39.7017 16.3372 39.3329V31.1898C16.3372 30.821 16.6337 30.5227 17.0002 30.5227C17.3668 30.5227 17.6633 30.821 17.6633 31.1898V39.3329C17.6633 39.7017 17.3668 40 17.0002 40Z" fill="white"/>
<path d="M22.038 40H11.9624C11.5964 40 11.2999 39.7017 11.2999 39.3329C11.2999 38.9648 11.5964 38.6665 11.9624 38.6665H22.038C22.4046 38.6665 22.7011 38.9648 22.7011 39.3329C22.7011 39.7017 22.4046 40 22.038 40Z" fill="white"/>
</svg>
