<svg width="36" height="40" viewBox="0 0 36 40" fill="none" xmlns="http://www.w3.org/2000/svg">
<path d="M18 1.33327C12.494 1.33327 8.0152 5.81162 8.0152 11.3165C8.0152 16.8207 12.494 21.2991 18 21.2991C23.506 21.2991 27.9848 16.8207 27.9848 11.3165C27.9848 5.81162 23.506 1.33327 18 1.33327ZM18 22.6323C11.7545 22.6323 6.67322 17.5557 6.67322 11.3165C6.67322 5.07667 11.7545 2.96071e-05 18 2.96071e-05C24.2454 2.96071e-05 29.3261 5.07667 29.3261 11.3165C29.3261 17.5557 24.2454 22.6323 18 22.6323Z" fill="white"/>
<path d="M35.329 40C34.9581 40 34.658 39.7018 34.658 39.3331C34.658 30.1516 27.1855 22.6818 18 22.6818C8.81453 22.6818 1.34198 30.1516 1.34198 39.3331C1.34198 39.7018 1.04193 40 0.670989 40C0.300051 40 0 39.7018 0 39.3331C0 29.4167 8.07449 21.348 18 21.348C27.9255 21.348 36 29.4167 36 39.3331C36 39.7018 35.6999 40 35.329 40Z" fill="white"/>
</svg>
