<svg width="39" height="39" viewBox="0 0 39 39" fill="none" xmlns="http://www.w3.org/2000/svg">
<path d="M10.1574 9.55263H37.6645V6.49976C37.6645 3.63285 35.2754 1.30012 32.3381 1.30012H15.4845C12.5472 1.30012 10.1574 3.63285 10.1574 6.49976V9.55263ZM38.3325 10.8525H9.48942C9.12074 10.8525 8.82202 10.5618 8.82202 10.2029V6.49976C8.82202 2.91627 11.8104 0.000207482 15.4845 0.000207482H32.3381C36.0115 0.000207482 38.9999 2.91627 38.9999 6.49976V10.2029C38.9999 10.5618 38.7012 10.8525 38.3325 10.8525" fill="white"/>
<path d="M9.48964 39H0.66801C0.298719 39 0 38.7092 0 38.3497V10.2024C0 9.84291 0.298719 9.55273 0.66801 9.55273H9.48964C9.85894 9.55273 10.1577 9.84291 10.1577 10.2024C10.1577 10.5619 9.85894 10.8526 9.48964 10.8526H1.33602V37.7001H9.48964C9.85894 37.7001 10.1577 37.9909 10.1577 38.3497C10.1577 38.7092 9.85894 39 9.48964 39Z" fill="white"/>
<path d="M31.857 39H9.48955C9.12086 39 8.82214 38.7092 8.82214 38.3497C8.82214 37.9909 9.12086 37.7001 9.48955 37.7001H31.857C35.0595 37.7001 37.6646 35.1571 37.6646 32.0308V10.8526H9.48955C9.12086 10.8526 8.82214 10.5619 8.82214 10.2024C8.82214 9.84291 9.12086 9.55273 9.48955 9.55273H38.3326C38.7013 9.55273 39 9.84291 39 10.2024V32.0308C39 35.8737 35.7957 39 31.857 39Z" fill="white"/>
<path d="M7.26273 22.5233C6.27349 22.5233 5.46798 23.3097 5.46798 24.2756C5.46798 25.2427 6.27349 26.0292 7.26273 26.0292C8.25197 26.0292 9.05748 25.2427 9.05748 24.2756C9.05748 23.3097 8.25197 22.5233 7.26273 22.5233ZM7.26273 27.3291C5.53673 27.3291 4.13257 25.9593 4.13257 24.2756C4.13257 22.5926 5.53673 21.2234 7.26273 21.2234C8.98873 21.2234 10.3929 22.5926 10.3929 24.2756C10.3929 25.9593 8.98873 27.3291 7.26273 27.3291Z" fill="white"/>
</svg>
