<svg width="25" height="40" viewBox="0 0 25 40" fill="none" xmlns="http://www.w3.org/2000/svg">
<path d="M1.31753 1.33321V12.954C1.31753 19.1932 6.33373 24.2692 12.5 24.2692C18.6663 24.2692 23.6825 19.1932 23.6825 12.954V1.33321H1.31753ZM12.5 25.603C5.60744 25.603 0 19.9281 0 12.954V0.666291C0 0.298208 0.294718 -2.48586e-05 0.658463 -2.48586e-05H24.3409C24.7053 -2.48586e-05 25 0.298208 25 0.666291V12.954C25 19.9281 19.3926 25.603 12.5 25.603Z" fill="white"/>
<path d="M12.4999 40C12.1355 40 11.8408 39.7018 11.8408 39.3331V24.9359C11.8408 24.5678 12.1355 24.2696 12.4999 24.2696C12.8642 24.2696 13.1589 24.5678 13.1589 24.9359V39.3331C13.1589 39.7018 12.8642 40 12.4999 40Z" fill="white"/>
<path d="M18.572 40H6.42737C6.06303 40 5.76831 39.7018 5.76831 39.3331C5.76831 38.965 6.06303 38.6668 6.42737 38.6668H18.572C18.9364 38.6668 19.2311 38.965 19.2311 39.3331C19.2311 39.7018 18.9364 40 18.572 40Z" fill="white"/>
</svg>
