<svg width="20" height="20" viewBox="0 0 20 20" fill="none" xmlns="http://www.w3.org/2000/svg">
<path d="M7.5648 0.662845C3.76099 0.662845 0.666616 3.73438 0.666616 7.50948C0.666616 11.2849 3.76099 14.3564 7.5648 14.3564H13.9601C16.9229 14.3564 19.3334 11.964 19.3334 9.02321C19.3334 6.08212 16.9229 3.68969 13.9601 3.68969C13.8061 3.68969 13.6542 3.70026 13.5033 3.71264C13.383 3.72321 13.2713 3.66976 13.2032 3.57374C11.9092 1.75111 9.80153 0.662845 7.5648 0.662845ZM13.9601 15.0192H7.5648C3.39352 15.0192 0 11.6503 0 7.50948C0 3.36871 3.39352 4.29854e-05 7.5648 4.29854e-05C9.95429 4.29854e-05 12.2096 1.13209 13.636 3.03806C13.7435 3.03142 13.8513 3.02689 13.9601 3.02689C17.2904 3.02689 20 5.71675 20 9.02321C20 12.3294 17.2904 15.0192 13.9601 15.0192" fill="white"/>
<path d="M6.18881 20C6.13749 20 6.08495 19.988 6.03575 19.9629C5.87236 19.879 5.80858 19.6791 5.89332 19.5163L7.32252 16.7694C7.40725 16.6072 7.60708 16.5426 7.77169 16.6275C7.93508 16.7114 7.99916 16.9113 7.91442 17.0741L6.48492 19.821C6.4257 19.9348 6.30969 20 6.18881 20Z" fill="white"/>
<path d="M9.6182 20C9.56687 20 9.51433 19.988 9.46513 19.9629C9.30174 19.879 9.23797 19.6791 9.3227 19.5163L10.7519 16.7694C10.8366 16.6072 11.0368 16.5426 11.2011 16.6275C11.3645 16.7114 11.4285 16.9113 11.3438 17.0741L9.9143 19.821C9.85508 19.9348 9.73907 20 9.6182 20Z" fill="white"/>
<path d="M13.0475 20C12.9962 20 12.9437 19.988 12.8945 19.9629C12.7311 19.879 12.6673 19.6791 12.752 19.5163L14.1815 16.7694C14.266 16.6072 14.4667 16.5426 14.631 16.6275C14.7944 16.7114 14.8582 16.9113 14.7734 17.0741L13.3436 19.821C13.2844 19.9348 13.1684 20 13.0475 20Z" fill="white"/>
</svg>
