<svg width="21" height="20" viewBox="0 0 21 20" fill="none" xmlns="http://www.w3.org/2000/svg">
<path d="M10.9951 3.77564V19.2087L20.326 16.2243V0.791188L10.9951 3.77564ZM10.6579 19.9998C10.5876 19.9998 10.5182 19.9783 10.4598 19.9361C10.3726 19.8732 10.321 19.7733 10.321 19.6667V3.53298C10.321 3.38873 10.415 3.26026 10.5544 3.21622L20.5594 0.0161477C20.6613 -0.0166518 20.774 0.000964324 20.8612 0.06383C20.9484 0.126696 21 0.226611 21 0.333209V16.4666C21 16.6112 20.9061 16.7396 20.7666 16.7837L10.7617 19.9838C10.7279 19.9947 10.6929 19.9998 10.6579 19.9998Z" fill="white"/>
<path d="M0.674019 16.2219L10.3209 19.2128V3.77787L0.674019 0.787043V16.2219ZM10.6581 20C10.624 20 10.5902 19.9951 10.5574 19.9848L0.236137 16.7847C0.0958058 16.7413 0 16.6125 0 16.4667V0.333316C0 0.227021 0.0509736 0.12741 0.137567 0.0645439C0.224468 0.0022856 0.336549 -0.0159371 0.437575 0.0153439L10.7588 3.21512C10.8991 3.25855 10.9949 3.38732 10.9949 3.53309V19.6665C10.9949 19.7728 10.944 19.8724 10.8574 19.9353C10.7987 19.9778 10.7287 20 10.6581 20" fill="white"/>
</svg>
