<svg width="20" height="20" viewBox="0 0 20 20" fill="none" xmlns="http://www.w3.org/2000/svg">
<path d="M0.666609 8.20796H8.20784V0.664443H0.666609V8.20796ZM8.54098 8.8728H0.333138C0.148791 8.8728 0 8.72415 0 8.54038V0.332022C0 0.148558 0.148791 -6.7579e-05 0.333138 -6.7579e-05H8.54098C8.72533 -6.7579e-05 8.87416 0.148558 8.87416 0.332022V8.54038C8.87416 8.72415 8.72533 8.8728 8.54098 8.8728Z" fill="white"/>
<path d="M11.7924 8.20796H19.3337V0.664443H11.7924V8.20796ZM19.6668 8.8728H11.459C11.2746 8.8728 11.1255 8.72415 11.1255 8.54038V0.332022C11.1255 0.148558 11.2746 -6.7579e-05 11.459 -6.7579e-05H19.6668C19.8512 -6.7579e-05 20 0.148558 20 0.332022V8.54038C20 8.72415 19.8512 8.8728 19.6668 8.8728Z" fill="white"/>
<path d="M0.666609 19.3351H8.20784V11.791H0.666609V19.3351ZM8.54098 19.9999H0.333138C0.148791 19.9999 0 19.8513 0 19.6675V11.4589C0 11.2754 0.148791 11.1267 0.333138 11.1267H8.54098C8.72533 11.1267 8.87416 11.2754 8.87416 11.4589V19.6675C8.87416 19.8513 8.72533 19.9999 8.54098 19.9999Z" fill="white"/>
<path d="M11.7924 19.3351H19.3337V11.791H11.7924V19.3351ZM19.6668 19.9999H11.459C11.2746 19.9999 11.1255 19.8513 11.1255 19.6675V11.4589C11.1255 11.2754 11.2746 11.1267 11.459 11.1267H19.6668C19.8512 11.1267 20 11.2754 20 11.4589V19.6675C20 19.8513 19.8512 19.9999 19.6668 19.9999Z" fill="white"/>
</svg>
