<svg width="12" height="20" viewBox="0 0 12 20" fill="none" xmlns="http://www.w3.org/2000/svg">
<path d="M6.00015 0.666573C3.05482 0.666573 0.658483 3.8958 0.658483 7.86514C0.658483 11.8339 3.05482 15.0631 6.00015 15.0631C8.94518 15.0631 11.3415 11.8339 11.3415 7.86514C11.3415 3.8958 8.94518 0.666573 6.00015 0.666573ZM6.00015 15.7297C2.69183 15.7297 0 12.2017 0 7.86514C0 3.52863 2.69183 -4.53391e-05 6.00015 -4.53391e-05C9.30847 -4.53391e-05 12 3.52863 12 7.86514C12 12.2017 9.30847 15.7297 6.00015 15.7297Z" fill="white"/>
<path d="M6.00017 20C5.81807 20 5.67078 19.8508 5.67078 19.6665V6.2415C5.67078 6.15282 5.70528 6.06839 5.76707 6.00583L7.10714 4.64526C7.23584 4.51558 7.44433 4.51558 7.57303 4.64435C7.70172 4.77463 7.70172 4.9857 7.57363 5.1166L6.32956 6.37938V19.6665C6.32956 19.8508 6.18226 20 6.00017 20Z" fill="white"/>
<path d="M9.0494 20H2.95086C2.76906 20 2.62177 19.8508 2.62177 19.6665C2.62177 19.4825 2.76906 19.3333 2.95086 19.3333H9.0494C9.2315 19.3333 9.37879 19.4825 9.37879 19.6665C9.37879 19.8508 9.2315 20 9.0494 20Z" fill="white"/>
<path d="M6.00011 10.888C5.91252 10.888 5.82882 10.8527 5.76702 10.7902L2.5217 7.49596C2.3933 7.36507 2.3933 7.1543 2.5223 7.02401C2.651 6.89525 2.85919 6.89433 2.98789 7.02462L6.00011 10.0826L8.48285 7.56247C8.61155 7.43218 8.81974 7.43279 8.94844 7.56186C9.07744 7.69215 9.07744 7.90292 8.94904 8.03381L6.23321 10.7902C6.17141 10.8527 6.08771 10.888 6.00011 10.888Z" fill="white"/>
<path d="M6.00016 6.57481C5.91556 6.57481 5.83126 6.54232 5.76706 6.47702L3.59122 4.26883C3.46282 4.13793 3.46282 3.92717 3.59182 3.79749C3.72081 3.66659 3.92901 3.66781 4.05741 3.79749L6.23325 6.00568C6.36165 6.13658 6.36165 6.34765 6.23265 6.47702C6.16845 6.54232 6.08446 6.57481 6.00016 6.57481Z" fill="white"/>
</svg>
