<svg width="17" height="20" viewBox="0 0 17 20" fill="none" xmlns="http://www.w3.org/2000/svg">
<path d="M6.81878 15.3734C6.73365 15.3734 6.64852 15.3409 6.58368 15.2756C6.45371 15.1456 6.45371 14.9345 6.58368 14.8043L11.5008 9.87494L6.83302 5.19617C6.70305 5.06589 6.70305 4.85482 6.83302 4.72453C6.963 4.59455 7.17356 4.59455 7.30322 4.72453L12.2061 9.63927C12.3361 9.76956 12.3361 9.98063 12.2061 10.1106L7.05388 15.2756C6.98905 15.3409 6.90392 15.3734 6.81878 15.3734Z" fill="white"/>
<path d="M11.971 10.2083H0.332654C0.148755 10.2083 0 10.0592 0 9.87481C0 9.69077 0.148755 9.54165 0.332654 9.54165H11.971C12.1549 9.54165 12.3037 9.69077 12.3037 9.87481C12.3037 10.0592 12.1549 10.2083 11.971 10.2083Z" fill="white"/>
<path d="M16.6673 20H6.15175C5.96785 20 5.81909 19.8509 5.81909 19.6666C5.81909 19.4825 5.96785 19.3334 6.15175 19.3334H16.3347V0.666631H6.15175C5.96785 0.666631 5.81909 0.517514 5.81909 0.333473C5.81909 0.149129 5.96785 1.36346e-05 6.15175 1.36346e-05H16.6673C16.8512 1.36346e-05 17 0.149129 17 0.333473V19.6666C17 19.8509 16.8512 20 16.6673 20Z" fill="white"/>
</svg>
