<svg width="16" height="20" viewBox="0 0 16 20" fill="none" xmlns="http://www.w3.org/2000/svg">
<path d="M4.92811 15.3734C4.84798 15.3734 4.76786 15.3409 4.70684 15.2756L0.0918158 10.3609C0.0330766 10.2983 0 10.2136 0 10.1252C0 10.0365 0.0330766 9.95177 0.0918158 9.88952L4.94151 4.72453C5.06384 4.59455 5.26172 4.59455 5.38405 4.72453C5.50638 4.85482 5.50638 5.06589 5.38405 5.19617L0.755626 10.1252L5.14938 14.8043C5.2717 14.9345 5.2717 15.1456 5.14938 15.2756C5.08836 15.3409 5.00823 15.3734 4.92811 15.3734Z" fill="white"/>
<path d="M11.2668 10.4583H0.313086C0.140005 10.4583 0 10.3092 0 10.1248C0 9.94078 0.140005 9.79167 0.313086 9.79167H11.2668C11.4399 9.79167 11.5799 9.94078 11.5799 10.1248C11.5799 10.3092 11.4399 10.4583 11.2668 10.4583Z" fill="white"/>
<path d="M15.6869 20H5.78991C5.61683 20 5.47711 19.8509 5.47711 19.6666C5.47711 19.4825 5.61683 19.3334 5.78991 19.3334H15.3738V0.666631H5.78991C5.61683 0.666631 5.47711 0.517514 5.47711 0.333473C5.47711 0.149129 5.61683 1.36346e-05 5.78991 1.36346e-05H15.6869C15.86 1.36346e-05 16 0.149129 16 0.333473V19.6666C16 19.8509 15.86 20 15.6869 20Z" fill="white"/>
</svg>
