<svg width="14" height="11" viewBox="0 0 14 11" fill="none" xmlns="http://www.w3.org/2000/svg">
<path d="M13.6665 0.673447H0.333456C0.149114 0.673447 0 0.52281 0 0.336585C0 0.150666 0.149114 2.9686e-05 0.333456 2.9686e-05H13.6665C13.8509 2.9686e-05 14 0.150666 14 0.336585C14 0.52281 13.8509 0.673447 13.6665 0.673447Z" fill="white"/>
<path d="M13.6665 5.83688H0.333456C0.149114 5.83688 0 5.68625 0 5.50002C0 5.3141 0.149114 5.16347 0.333456 5.16347H13.6665C13.8509 5.16347 14 5.3141 14 5.50002C14 5.68625 13.8509 5.83688 13.6665 5.83688Z" fill="white"/>
<path d="M13.6665 11H0.333456C0.149114 11 0 10.8494 0 10.6632C0 10.4773 0.149114 10.3266 0.333456 10.3266H13.6665C13.8509 10.3266 14 10.4773 14 10.6632C14 10.8494 13.8509 11 13.6665 11Z" fill="white"/>
</svg>
