<svg width="19" height="20" viewBox="0 0 19 20" fill="none" xmlns="http://www.w3.org/2000/svg">
<path d="M13.2621 15.03C13.0869 15.03 12.9453 14.8816 12.9453 14.6982C12.9453 14.5151 13.0869 14.3667 13.2621 14.3667C16.0768 14.3667 18.3667 11.9726 18.3667 9.02967C18.3667 6.08647 16.0768 3.69233 13.2621 3.69233C13.1155 3.69233 12.9718 3.70291 12.8281 3.7153C12.7162 3.72708 12.6077 3.67178 12.5431 3.57629C11.3137 1.75206 9.31146 0.663315 7.18656 0.663315C3.57323 0.663315 0.633574 3.73705 0.633574 7.51486C0.633574 11.293 3.57323 14.3667 7.18656 14.3667C7.36169 14.3667 7.50335 14.5151 7.50335 14.6982C7.50335 14.8816 7.36169 15.03 7.18656 15.03C3.22413 15.03 0 11.6586 0 7.51486C0 3.37081 3.22413 3.86603e-05 7.18656 3.86603e-05C9.45687 3.86603e-05 11.5994 1.1329 12.9542 3.04023C13.0561 3.03359 13.1585 3.02905 13.2621 3.02905C16.4259 3.02905 19 5.72084 19 9.02967C19 12.3382 16.4259 15.03 13.2621 15.03Z" fill="white"/>
<path d="M14.2176 12.7948C14.1365 12.7948 14.0555 12.7625 13.9937 12.6975L10.2624 8.78944L6.72233 12.4971C6.59885 12.6268 6.39833 12.6268 6.27456 12.4971C6.15107 12.3675 6.15107 12.1578 6.27456 12.0282L10.0385 8.08598C10.1623 7.95665 10.3625 7.95665 10.4863 8.08598L14.4415 12.2285C14.5653 12.3581 14.5653 12.5682 14.4415 12.6975C14.3797 12.7625 14.2987 12.7948 14.2176 12.7948Z" fill="white"/>
<path d="M10.2624 20C10.0873 20 9.94562 19.8517 9.94562 19.6683V8.32063C9.94562 8.13721 10.0873 7.98884 10.2624 7.98884C10.4375 7.98884 10.5792 8.13721 10.5792 8.32063V19.6683C10.5792 19.8517 10.4375 20 10.2624 20Z" fill="white"/>
</svg>
