<svg width="10" height="20" viewBox="0 0 10 20" fill="none" xmlns="http://www.w3.org/2000/svg">
<path d="M0.938002 11.1493H4.49936C4.60086 11.1493 4.69687 11.1952 4.76057 11.2741C4.82397 11.3528 4.84805 11.4561 4.82611 11.5551L3.42705 17.8431L9.062 8.85062H5.50034C5.39914 8.85062 5.30313 8.80446 5.23943 8.7258C5.17603 8.64714 5.15195 8.54389 5.17389 8.44488L6.57265 2.1568L0.938002 11.1493ZM2.67905 20C2.63669 20 2.59371 19.9918 2.55225 19.9751C2.40168 19.9137 2.31694 19.7528 2.3523 19.5943L4.08269 11.8159H0.334485C0.213173 11.8159 0.101004 11.7503 0.0418716 11.6443C-0.016956 11.5384 -0.0136031 11.4087 0.050711 11.3063L7.03687 0.156949C7.12313 0.0187666 7.29534 -0.0362043 7.44775 0.0245354C7.59832 0.0861862 7.68275 0.246844 7.6477 0.405375L5.91731 8.1837H9.66521C9.78683 8.1837 9.899 8.2496 9.95813 8.35529C10.017 8.46158 10.0136 8.59096 9.94929 8.69361L2.96283 19.843C2.90004 19.9432 2.79153 20 2.67905 20Z" fill="white"/>
</svg>
