<svg width="18" height="20" viewBox="0 0 18 20" fill="none" xmlns="http://www.w3.org/2000/svg">
<path d="M9 0.666666C6.24698 0.666666 4.0076 2.90584 4.0076 5.65827C4.0076 8.4104 6.24698 10.6496 9 10.6496C11.753 10.6496 13.9924 8.4104 13.9924 5.65827C13.9924 2.90584 11.753 0.666666 9 0.666666ZM9 11.3162C5.87726 11.3162 3.33661 8.77787 3.33661 5.65827C3.33661 2.53837 5.87726 4.53211e-05 9 4.53211e-05C12.1227 4.53211e-05 14.6631 2.53837 14.6631 5.65827C14.6631 8.77787 12.1227 11.3162 9 11.3162Z" fill="white"/>
<path d="M17.6645 20C17.479 20 17.329 19.8508 17.329 19.6665C17.329 15.0758 13.5927 11.3409 9 11.3409C4.40727 11.3409 0.670989 15.0758 0.670989 19.6665C0.670989 19.8508 0.520964 20 0.335495 20C0.150025 20 0 19.8508 0 19.6665C0 14.7083 4.03724 10.6739 9 10.6739C13.9628 10.6739 18 14.7083 18 19.6665C18 19.8508 17.85 20 17.6645 20Z" fill="white"/>
</svg>
