<?xml version="1.0" standalone="no"?><!-- Generator: Gravit.io --><svg xmlns="http://www.w3.org/2000/svg" xmlns:xlink="http://www.w3.org/1999/xlink" style="isolation:isolate" viewBox="335.44 157.135 12.56 7.729" width="12.56" height="7.729"><g><path d=" M 341.72 164.865 C 341.72 164.865 341.72 164.865 341.72 164.865 C 341.531 164.865 341.351 164.789 341.219 164.655 L 335.577 158.932 C 335.489 158.842 335.439 158.721 335.44 158.595 L 335.44 157.613 C 335.44 157.418 335.555 157.245 335.735 157.171 C 335.912 157.098 336.116 157.14 336.25 157.277 L 341.563 162.666 C 341.604 162.708 341.66 162.732 341.72 162.732 L 341.72 162.732 C 341.779 162.732 341.835 162.708 341.877 162.666 L 347.189 157.277 C 347.323 157.14 347.527 157.098 347.705 157.171 C 347.884 157.244 348.001 157.42 348 157.613 L 348 158.595 C 348 158.722 347.951 158.841 347.863 158.931 L 347.862 158.932 L 342.221 164.655 C 342.087 164.79 341.909 164.865 341.72 164.865 Z  M 335.906 157.616 L 335.923 158.595 L 341.563 164.315 C 341.604 164.358 341.661 164.381 341.72 164.382 L 341.72 164.382 C 341.779 164.382 341.835 164.358 341.877 164.315 L 347.517 158.594 L 347.517 157.613 L 342.221 163.005 C 342.089 163.14 341.908 163.216 341.72 163.215 L 341.72 163.215 C 341.531 163.216 341.351 163.14 341.219 163.005 L 335.906 157.616 Z " fill="rgb(255,255,255)"/></g></svg>